<?xml version="1.0" encoding="iso-8859-1"?>
<!-- Generator: Adobe Illustrator 19.0.0, SVG Export Plug-In . SVG Version: 6.00 Build 0)  -->
<svg version="1.1" id="Capa_1" xmlns="http://www.w3.org/2000/svg" xmlns:xlink="http://www.w3.org/1999/xlink" x="0px" y="0px"
	 viewBox="0 0 428.4 428.4" style="enable-background:new 0 0 428.4 428.4;" xml:space="preserve">
<g>
	<g>
		<path d="M413.3,0H16.2C10.4,0,5.8,4.7,5.8,10.4v62.7c0,5.8,4.7,10.4,10.4,10.4h397.1c5.8,0,10.4-4.7,10.4-10.4V10.4
			C423.7,4.6,419,0,413.3,0z M402.8,62.5H26.6V20.9h376.2V62.5z"/>
	</g>
</g>
<g>
	<g>
		<path d="M413.3,115h-94c-5.8,0-10.4,4.7-10.4,10.4v62.7c0,5.8,4.7,10.4,10.4,10.4h94c5.8,0,10.4-4.7,10.4-10.4v-62.7
			C423.7,119.6,419,115,413.3,115z M402.8,177.4h-73.1v-41.6h73.1V177.4z"/>
	</g>
</g>
<g>
	<g>
		<path d="M413.3,229.9h-94c-5.8,0-10.4,4.7-10.4,10.4V303c0,5.8,4.7,10.4,10.4,10.4h94c5.8,0,10.4-4.7,10.4-10.4v-62.7
			C423.7,234.5,419,229.9,413.3,229.9z M402.8,292.3h-73.1v-41.6h73.1V292.3z"/>
	</g>
</g>
<g>
	<g>
		<path d="M413.3,344.9h-94c-5.8,0-10.4,4.7-10.4,10.4V418c0,5.8,4.7,10.4,10.4,10.4h94c5.8,0,10.4-4.7,10.4-10.4v-62.7
			C423.7,349.5,419,344.9,413.3,344.9z M402.8,407.3h-73.1v-41.6h73.1V407.3z"/>
	</g>
</g>
<g>
	<g>
		<path d="M261.8,115H16.2c-5.8,0-10.4,4.7-10.4,10.4V303c0,5.8,4.7,10.4,10.4,10.4h245.5c5.8,0,10.4-4.7,10.4-10.4V125.4h0.1
			C272.2,119.6,267.5,115,261.8,115z M251.3,292.3H26.6V135.8h224.7V292.3z"/>
	</g>
</g>
<g>
	<g>
		<path d="M173.9,355.4H15.1c-5.8,0-10.4,4.7-10.4,10.4c0,5.7,4.7,10.4,10.4,10.4h158.8c5.8,0,10.4-4.7,10.4-10.4
			C184.3,360.1,179.6,355.4,173.9,355.4z"/>
	</g>
</g>
<g>
	<g>
		<path d="M257.5,407.5H15.1c-5.8,0-10.4,4.7-10.4,10.4c0,5.7,4.7,10.4,10.4,10.4h242.4c5.8,0,10.4-4.7,10.4-10.4
			C267.9,412.2,263.3,407.5,257.5,407.5z"/>
	</g>
</g>
<g>
</g>
<g>
</g>
<g>
</g>
<g>
</g>
<g>
</g>
<g>
</g>
<g>
</g>
<g>
</g>
<g>
</g>
<g>
</g>
<g>
</g>
<g>
</g>
<g>
</g>
<g>
</g>
<g>
</g>
</svg>
