<?xml version="1.0" encoding="iso-8859-1"?>
<!-- Generator: Adobe Illustrator 19.0.0, SVG Export Plug-In . SVG Version: 6.00 Build 0)  -->
<svg version="1.1" id="Capa_1" xmlns="http://www.w3.org/2000/svg" xmlns:xlink="http://www.w3.org/1999/xlink" x="0px" y="0px"
	 viewBox="0 0 474.533 474.533" style="enable-background:new 0 0 474.533 474.533;" xml:space="preserve">
<g>
	<g>
		<g>
			<path d="M315.602,276.003c43.281,0.097,78.445-34.911,78.542-78.192c0.029-12.805-3.081-25.422-9.057-36.747L325.006,47.17
				c-2.515-5.194-8.765-7.365-13.959-4.849c-2.116,1.025-3.825,2.733-4.849,4.849l-60.082,113.894
				c-16.143,30.398-10.407,67.79,14.106,91.951C274.938,267.668,294.836,275.928,315.602,276.003z M264.925,170.468l50.678-96.131
				l50.677,96.131c14.968,27.988,4.413,62.811-23.576,77.779c-27.988,14.968-62.811,4.413-77.779-23.576
				C255.869,207.739,255.869,187.401,264.925,170.468z"/>
			<path d="M108.19,140.166c12.608,0.082,24.697-5.018,33.437-14.106c15.188-14.736,18.808-37.736,8.882-56.424L117.072,5.897
				c-2.515-5.194-8.765-7.365-13.959-4.849c-2.116,1.025-3.825,2.733-4.849,4.849L64.827,69.636
				c-9.927,18.689-6.306,41.689,8.882,56.424C82.805,135.257,95.256,140.351,108.19,140.166z M83.635,79.04l24.033-45.975
				L131.7,79.04c5.665,10.667,3.762,23.776-4.702,32.392c-4.915,5.102-11.724,7.939-18.808,7.837
				c-7.389,0.088-14.517-2.725-19.853-7.837C79.711,102.896,77.792,89.675,83.635,79.04z"/>
			<path d="M446.737,447.366c-6.617-4.599-12.44-10.246-17.241-16.718c-11.494-13.061-26.122-29.257-53.29-29.257
				c-27.167,0-41.273,15.674-53.29,29.78c-12.016,14.106-19.853,22.465-37.616,22.465c-17.763,0-26.645-9.927-37.616-22.465
				s-25.6-29.78-53.29-29.78c-27.69,0-41.273,15.674-53.29,29.78c-12.016,14.106-19.853,22.465-37.616,22.465
				c-17.763,0-26.645-9.927-37.616-22.465c-7.458-9.85-16.889-18.035-27.69-24.033c-5.194-2.597-11.509-0.492-14.106,4.702
				c-2.597,5.194-0.492,11.509,4.702,14.106c8.203,4.944,15.457,11.314,21.42,18.808c12.016,14.106,26.122,29.78,53.29,29.78
				c27.167,0,41.273-15.673,53.29-29.78c12.016-14.106,19.853-22.465,37.616-22.465c17.763,0,26.645,9.927,37.616,22.465
				c10.971,12.539,25.6,29.78,53.29,29.78c27.69,0,41.273-15.673,53.29-29.78c12.016-14.106,19.853-22.465,37.616-22.465
				s26.645,9.927,37.616,22.465c6.089,7.818,13.308,14.685,21.42,20.375c4.905,3.174,11.455,1.771,14.629-3.135
				C453.046,457.09,451.642,450.54,446.737,447.366z"/>
			<path d="M28.778,337.129c8.203,4.945,15.457,11.314,21.42,18.808c12.016,14.106,26.122,29.78,53.29,29.78
				c27.167,0,41.273-15.673,53.29-29.78c12.016-14.106,19.853-22.465,37.616-22.465c17.763,0,26.645,9.927,37.616,22.465
				c10.971,12.539,25.6,29.78,53.29,29.78c27.69,0,41.273-15.673,53.29-29.78c12.016-14.106,19.853-22.465,37.616-22.465
				s26.645,9.927,37.616,22.465c6.089,7.818,13.308,14.685,21.42,20.376c4.905,3.174,11.455,1.77,14.629-3.135
				c3.174-4.905,1.771-11.455-3.135-14.629c-6.617-4.599-12.44-10.246-17.241-16.718c-11.494-13.061-26.122-29.257-53.29-29.257
				c-27.167,0-41.273,15.673-53.29,29.78c-12.016,14.106-19.853,22.465-37.616,22.465c-17.763,0-26.645-9.927-37.616-22.465
				c-10.971-12.539-25.6-29.78-53.29-29.78c-27.69,0-41.273,15.673-53.29,29.78c-12.016,14.106-19.853,22.465-37.616,22.465
				c-17.763,0-26.645-9.927-37.616-22.465c-7.458-9.849-16.889-18.035-27.69-24.033c-5.194-2.597-11.509-0.492-14.106,4.702
				C21.479,328.217,23.584,334.533,28.778,337.129z"/>
		</g>
	</g>
</g>
<g>
</g>
<g>
</g>
<g>
</g>
<g>
</g>
<g>
</g>
<g>
</g>
<g>
</g>
<g>
</g>
<g>
</g>
<g>
</g>
<g>
</g>
<g>
</g>
<g>
</g>
<g>
</g>
<g>
</g>
</svg>
