<?xml version="1.0" encoding="iso-8859-1"?>
<!-- Generator: Adobe Illustrator 19.0.0, SVG Export Plug-In . SVG Version: 6.00 Build 0)  -->
<svg version="1.1" id="Capa_1" xmlns="http://www.w3.org/2000/svg" xmlns:xlink="http://www.w3.org/1999/xlink" x="0px" y="0px"
	 viewBox="0 0 458.71 458.71" style="enable-background:new 0 0 458.71 458.71;" xml:space="preserve">
<g>
	<g>
		<g>
			<path d="M317.649,229.356c0.664-16.148-2.94-32.186-10.449-46.498l-1.045-1.045L235.625,78.891
				c-1.963-2.982-5.312-4.755-8.882-4.702c-3.436-0.078-6.641,1.725-8.359,4.702l-71.053,102.922
				c-0.302,0.268-0.49,0.642-0.522,1.045c-7.921,14.552-11.715,30.992-10.971,47.543C50.678,242.94,0,270.107,0,304.067
				c0,52.245,118.073,80.457,229.355,80.457s229.355-28.212,229.355-80.457C458.71,263.315,387.135,239.283,317.649,229.356z
				 M164.571,193.307l62.171-90.384l62.171,90.384c17.148,34.654,2.958,76.647-31.696,93.796
				c-26.466,13.097-58.305,8.179-79.586-12.294C155.706,253.534,150.391,220.369,164.571,193.307z M151.51,276.377
				c3.214,4.708,6.889,9.083,10.971,13.061c35.497,35.476,93.026,35.476,128.522,0c4.264-4.332,8.112-9.055,11.494-14.106
				c38.139,7.837,50.678,20.375,50.678,25.078s-43.886,32.392-123.82,32.392s-123.82-21.42-123.82-32.392
				C105.535,289.438,118.596,284.213,151.51,276.377z M229.355,363.626c-129.045,0-208.457-34.482-208.457-59.559
				c0-25.078,40.751-41.796,118.596-53.29c0.522,2.09,1.567,4.18,2.09,6.269c-36.571,9.927-56.947,25.078-56.947,43.363
				c0,35.004,73.143,53.29,144.718,53.29s144.718-18.286,144.718-53.29c0-24.555-34.482-38.139-61.649-44.408l1.567-5.747
				c80.457,10.971,123.82,35.527,123.82,53.812C437.812,322.352,358.4,363.626,229.355,363.626z"/>
			<path d="M249.731,276.377c2.267,0.04,4.48-0.698,6.269-2.09c22.164-16.615,26.661-48.051,10.046-70.215
				c-0.211-0.282-0.425-0.561-0.642-0.838c-3.463-4.617-10.012-5.552-14.629-2.09c-4.617,3.462-5.552,10.012-2.09,14.629
				c10.039,13.289,7.473,32.188-5.747,42.318c-4.448,3.62-5.148,10.149-1.567,14.629
				C243.45,275.155,246.531,276.503,249.731,276.377z"/>
		</g>
	</g>
</g>
<g>
</g>
<g>
</g>
<g>
</g>
<g>
</g>
<g>
</g>
<g>
</g>
<g>
</g>
<g>
</g>
<g>
</g>
<g>
</g>
<g>
</g>
<g>
</g>
<g>
</g>
<g>
</g>
<g>
</g>
</svg>
