<?xml version="1.0" encoding="iso-8859-1"?>
<!-- Generator: Adobe Illustrator 19.0.0, SVG Export Plug-In . SVG Version: 6.00 Build 0)  -->
<svg version="1.1" id="Capa_1" xmlns="http://www.w3.org/2000/svg" xmlns:xlink="http://www.w3.org/1999/xlink" x="0px" y="0px"
	 viewBox="0 0 491.165 491.165" style="enable-background:new 0 0 491.165 491.165;" xml:space="preserve">
<g>
	<g>
		<g>
			<path d="M183.411,173.534c-95.015,0-172.12,76.871-172.408,171.886c-0.059,5.21,3.73,9.668,8.882,10.449
				c5.113,0.738,9.997-2.37,11.494-7.314c1.739-7.353,4.937-14.282,9.404-20.375c5.634-5.366,13.117-8.359,20.898-8.359
				c7.922,0.073,15.543,3.047,21.42,8.359c5.684,5.68,8.878,13.385,8.882,21.42c0,5.771,4.678,10.449,10.449,10.449
				s10.449-4.678,10.449-10.449c0.073-7.922,3.047-15.543,8.359-21.42c12.151-11.03,30.69-11.03,42.841,0
				c5.683,5.68,8.878,13.385,8.882,21.42v108.669c0.01,18.178,14.754,32.906,32.932,32.896c18.164-0.01,32.886-14.732,32.896-32.896
				c0-5.771-4.678-10.449-10.449-10.449c-5.771,0-10.449,4.678-10.449,10.449c-0.005,6.636-5.39,12.012-12.026,12.007
				c-6.629-0.005-12.001-5.378-12.007-12.007V349.599c0.073-7.922,3.047-15.543,8.359-21.42c12.151-11.03,30.69-11.03,42.841,0
				c5.684,5.68,8.878,13.385,8.882,21.42c0,5.771,4.678,10.449,10.449,10.449s10.449-4.678,10.449-10.449
				c-0.588-15.859,11.792-29.192,27.65-29.78c0.71-0.026,1.42-0.026,2.129,0c7.922,0.073,15.543,3.047,21.42,8.359
				c4.104,6.044,7.111,12.765,8.882,19.853c1.283,5.154,6.228,8.525,11.494,7.837c5.359-0.539,9.431-5.063,9.404-10.449
				C355.531,250.405,278.426,173.534,183.411,173.534z M304.619,298.922c-13.611,0.027-26.697,5.261-36.571,14.629
				c-1.341,1.653-2.563,3.399-3.657,5.224l-4.18-5.224h-0.522c-20.102-19.645-52.283-19.412-72.098,0.522
				c-1.567,1.567-3.135,4.702-4.18,4.702c-1.567,0-2.612-3.135-4.18-4.702c0-0.289-0.234-0.522-0.522-0.522
				c-9.525-9.579-22.543-14.861-36.049-14.629c-13.473-0.057-26.425,5.199-36.049,14.629c-1.672,1.499-3.084,3.265-4.18,5.224
				l-4.18-5.224h-0.522c-9.525-9.579-22.543-14.861-36.049-14.629c-8.346,0.044-16.569,2.011-24.033,5.747
				c22.971-80.462,106.821-127.067,187.282-104.096c50.543,14.43,89.996,54.024,104.244,104.618
				C321.679,300.989,313.212,298.827,304.619,298.922z"/>
			<path d="M403.804,113.372c0.192,0.21,0.394,0.411,0.603,0.603c3.706,4.04,9.986,4.31,14.025,0.603
				c0.21-0.192,0.411-0.394,0.603-0.603l21.943-21.943c4.047-4.24,4.047-10.911,0-15.151c-3.706-4.04-9.986-4.31-14.025-0.603
				c-0.21,0.192-0.411,0.394-0.603,0.603l-21.943,22.465C400.367,103.053,400.097,109.332,403.804,113.372z"/>
			<path d="M381.942,121.289l-55.38,55.38c-4.04,3.706-4.31,9.986-0.603,14.025c0.192,0.21,0.394,0.411,0.603,0.603
				c1.929,1.969,4.558,3.095,7.314,3.135c2.915-0.013,5.717-1.134,7.837-3.135l55.38-55.38c3.725-4.165,3.725-10.464,0-14.629
				C392.853,117.242,386.181,117.242,381.942,121.289z"/>
			<path d="M378.284,65.909c1.929,1.969,4.558,3.095,7.314,3.135c2.915-0.013,5.717-1.134,7.837-3.135l10.971-10.971
				c4.04-3.706,4.31-9.986,0.603-14.025c-0.192-0.21-0.394-0.411-0.603-0.603c-4.24-4.047-10.911-4.047-15.151,0l-10.971,10.971
				c-4.04,3.706-4.31,9.986-0.603,14.025C377.873,65.516,378.075,65.717,378.284,65.909z"/>
			<path d="M301.565,128c-0.21,0.192-0.411,0.394-0.603,0.603l-26.122,26.122c-4.04,3.706-4.31,9.986-0.603,14.025
				c0.192,0.21,0.394,0.411,0.603,0.603c1.929,1.969,4.558,3.095,7.314,3.135c2.915-0.013,5.717-1.134,7.837-3.135l25.6-25.6
				c4.047-4.24,4.047-10.911,0-15.151C311.884,124.564,305.605,124.294,301.565,128z"/>
			<path d="M358.431,71.134c-0.792,0.594-1.496,1.298-2.09,2.09l-33.437,33.437c-4.04,3.706-4.31,9.986-0.603,14.025
				c0.192,0.21,0.394,0.411,0.603,0.603c1.929,1.969,4.558,3.095,7.314,3.135c2.782,0.089,5.46-1.059,7.314-3.135l33.437-33.437
				c4.617-3.463,5.552-10.012,2.09-14.629C369.597,68.607,363.048,67.671,358.431,71.134z"/>
			<path d="M337.533,42.922c2.826,0,5.576-0.917,7.837-2.612l21.943-22.465c4.04-3.706,4.31-9.986,0.603-14.025
				c-0.192-0.21-0.394-0.411-0.603-0.603c-3.706-4.04-9.986-4.31-14.025-0.603c-0.21,0.192-0.411,0.394-0.603,0.603l-22.465,21.943
				c-4.047,4.24-4.047,10.911,0,15.151C332.319,41.932,334.88,42.847,337.533,42.922z"/>
			<path d="M252.897,117.632c1.929,1.969,4.558,3.095,7.314,3.135c2.756-0.039,5.385-1.166,7.314-3.135l55.38-55.38
				c3.462-4.617,2.527-11.166-2.09-14.629c-3.715-2.786-8.824-2.786-12.539,0l-55.38,55.38c-4.04,3.706-4.31,9.986-0.603,14.025
				C252.486,117.238,252.687,117.44,252.897,117.632z"/>
			<path d="M475.982,113.975c-3.715-2.786-8.824-2.786-12.539,0l-10.971,10.971c-4.04,3.706-4.31,9.986-0.603,14.025
				c0.192,0.21,0.394,0.411,0.603,0.603c3.706,4.04,9.986,4.31,14.025,0.603c0.21-0.192,0.411-0.394,0.603-0.603l10.971-10.971
				C481.535,123.987,480.599,117.437,475.982,113.975z"/>
			<path d="M387.166,202.791c-3.715-2.786-8.824-2.786-12.539,0l-25.6,25.6c-4.04,3.706-4.31,9.986-0.603,14.025
				c0.192,0.21,0.394,0.411,0.603,0.603c3.706,4.04,9.986,4.31,14.025,0.603c0.21-0.192,0.411-0.394,0.603-0.603l25.6-25.6
				C392.718,212.803,391.783,206.254,387.166,202.791z"/>
			<path d="M430.007,147.412l-32.914,32.914c-4.047,4.24-4.047,10.911,0,15.151c2.061,1.693,4.647,2.617,7.314,2.612
				c2.653-0.075,5.214-0.989,7.314-2.612l33.437-33.437c3.725-4.165,3.725-10.464,0-14.629
				C440.918,143.365,434.247,143.365,430.007,147.412z"/>
		</g>
	</g>
</g>
<g>
</g>
<g>
</g>
<g>
</g>
<g>
</g>
<g>
</g>
<g>
</g>
<g>
</g>
<g>
</g>
<g>
</g>
<g>
</g>
<g>
</g>
<g>
</g>
<g>
</g>
<g>
</g>
<g>
</g>
</svg>
