<?xml version="1.0" encoding="iso-8859-1"?>
<!-- Generator: Adobe Illustrator 19.0.0, SVG Export Plug-In . SVG Version: 6.00 Build 0)  -->
<svg version="1.1" id="Capa_1" xmlns="http://www.w3.org/2000/svg" xmlns:xlink="http://www.w3.org/1999/xlink" x="0px" y="0px"
	 viewBox="0 0 481.058 481.058" style="enable-background:new 0 0 481.058 481.058;" xml:space="preserve">
<g>
	<g>
		<g>
			<path d="M240.529,162.905c-95.218,0-172.408,77.19-172.408,172.408c0.199,5.298,4.157,9.695,9.404,10.449
				c5.209,0.461,10.02-2.819,11.494-7.837c1.564-7.158,4.588-13.916,8.882-19.853c5.576-5.838,13.35-9.062,21.42-8.882
				c8.013,0.114,15.678,3.292,21.42,8.882c5.312,5.878,8.286,13.498,8.359,21.42c0,5.771,4.678,10.449,10.449,10.449
				s10.449-4.678,10.449-10.449c-0.116-8.059,3.097-15.808,8.882-21.42c11.573-11.686,30.428-11.777,42.114-0.204
				c0.068,0.068,0.136,0.136,0.204,0.204c5.684,5.68,8.878,13.385,8.882,21.42v108.669c0.01,18.178,14.754,32.906,32.932,32.896
				c18.164-0.01,32.886-14.732,32.896-32.896c0-5.771-4.678-10.449-10.449-10.449s-10.449,4.678-10.449,10.449
				c-0.005,6.636-5.39,12.012-12.026,12.007c-6.629-0.005-12.001-5.378-12.007-12.007V339.492
				c-0.116-8.059,3.097-15.808,8.882-21.42c5.414-5.757,12.995-8.979,20.898-8.882c16.735,0,30.302,13.567,30.302,30.302
				c0,5.771,4.678,10.449,10.449,10.449c5.771,0,10.449-4.678,10.449-10.449c-0.027-7.941,2.96-15.597,8.359-21.42
				c11.832-11.825,31.009-11.825,42.841,0c4.197,5.992,7.212,12.73,8.882,19.853c1.474,5.018,6.284,8.298,11.494,7.837
				c5.247-0.754,9.206-5.151,9.404-10.449C412.937,240.094,335.747,162.905,240.529,162.905z M361.737,288.292
				c-13.536,0.138-26.478,5.578-36.049,15.151l-4.18,4.702l-4.18-4.702c0-0.289-0.234-0.522-0.522-0.522
				c-9.655-9.382-22.587-14.63-36.049-14.629c-13.596-0.158-26.648,5.328-36.049,15.151c-1.567,1.567-3.135,4.702-4.18,4.702
				c-1.045,0-2.612-3.135-4.18-4.702c0-0.289-0.234-0.522-0.522-0.522c-20.102-19.645-52.283-19.412-72.098,0.522l-4.18,4.702
				l-4.18-4.702c0-0.289-0.234-0.522-0.522-0.522c-9.525-9.257-22.245-14.495-35.527-14.629c-8.593-0.094-17.06,2.067-24.555,6.269
				c22.828-80.503,106.593-127.258,187.096-104.43c50.568,14.339,90.091,53.862,104.43,104.43
				C378.797,290.36,370.33,288.198,361.737,288.292z"/>
			<path d="M170.521,151.411c9.393,0.425,18.52-3.188,25.078-9.927c13.667-14.331,13.667-36.869,0-51.2l-17.241-18.286
				c-2.055-2.1-4.9-3.238-7.837-3.135c-2.818,0.231-5.439,1.541-7.314,3.657l-17.241,18.286c-13.601,14.155-13.601,36.523,0,50.678
				C152.4,148.085,161.307,151.686,170.521,151.411z M161.117,105.435l9.404-10.449l9.927,10.449c5.64,6.026,5.64,15.394,0,21.42
				c-2.565,2.688-6.23,4.039-9.927,3.657c-3.543,0.38-7.049-0.983-9.404-3.657C155.204,120.939,155.204,111.351,161.117,105.435z"/>
			<path d="M243.664,88.717c10.154,0.347,19.93-3.87,26.645-11.494c14.596-15.171,14.596-39.164,0-54.335L251.5,3.035
				c-4.24-4.047-10.911-4.047-15.151,0l-18.808,19.853c-14.48,15.138-14.708,38.921-0.522,54.335
				C223.859,84.672,233.551,88.853,243.664,88.717z M232.692,37.517L243.664,25.5l11.494,12.016c6.703,7.217,6.703,18.383,0,25.6
				c-2.983,3.138-7.167,4.849-11.494,4.702c-4.173,0.133-8.19-1.588-10.971-4.702C225.989,55.9,225.989,44.734,232.692,37.517z"/>
			<path d="M316.806,130.513c7.599,0.418,15.015-2.434,20.376-7.837c10.952-11.173,10.952-29.055,0-40.229l-12.539-13.061
				c-4.24-4.047-10.911-4.047-15.151,0L296.953,82.97c-10.89,10.995-10.89,28.711,0,39.706
				C302.153,127.996,309.375,130.847,316.806,130.513z M312.104,97.076l4.702-5.224l5.224,5.747c3.03,2.672,3.32,7.294,0.648,10.324
				c-0.202,0.229-0.419,0.446-0.648,0.648c-1.567,1.567-3.135,1.045-5.224,1.045c-1.567,0-3.657,0.522-4.702-1.045
				C309.102,105.357,309.144,100.328,312.104,97.076z"/>
		</g>
	</g>
</g>
<g>
</g>
<g>
</g>
<g>
</g>
<g>
</g>
<g>
</g>
<g>
</g>
<g>
</g>
<g>
</g>
<g>
</g>
<g>
</g>
<g>
</g>
<g>
</g>
<g>
</g>
<g>
</g>
<g>
</g>
</svg>
