<?xml version="1.0" encoding="iso-8859-1"?>
<!-- Generator: Adobe Illustrator 19.0.0, SVG Export Plug-In . SVG Version: 6.00 Build 0)  -->
<svg version="1.1" id="Capa_1" xmlns="http://www.w3.org/2000/svg" xmlns:xlink="http://www.w3.org/1999/xlink" x="0px" y="0px"
	 viewBox="0 0 470.204 470.204" style="enable-background:new 0 0 470.204 470.204;" xml:space="preserve">
<g>
	<g>
		<g>
			<path d="M317.127,0H153.078c-17.754,0.528-32.102,14.648-32.914,32.392v353.176c0.844,46.592,38.562,84.08,85.159,84.637h59.559
				c46.797-0.564,84.595-38.363,85.159-85.159V32.392C349.229,14.648,334.881,0.528,317.127,0z M329.143,385.045
				c-0.56,35.256-29.005,63.702-64.261,64.261h-59.559c-35.058-0.551-63.424-28.687-64.261-63.739V303.02h188.082V385.045z
				 M329.143,282.122H141.061V32.392c0.734-6.215,5.774-11.036,12.016-11.494h164.049c6.242,0.457,11.282,5.278,12.016,11.494
				V282.122z"/>
			<path d="M235.102,55.38c-5.771,0-10.449,4.678-10.449,10.449v19.853c0,5.771,4.678,10.449,10.449,10.449
				s10.449-4.678,10.449-10.449V65.829C245.551,60.058,240.873,55.38,235.102,55.38z"/>
			<path d="M182.857,55.38c-5.771,0-10.449,4.678-10.449,10.449v19.853c0,5.771,4.678,10.449,10.449,10.449
				c5.771,0,10.449-4.678,10.449-10.449V65.829C193.306,60.058,188.628,55.38,182.857,55.38z"/>
			<path d="M287.347,55.38c-5.771,0-10.449,4.678-10.449,10.449v19.853c0,5.771,4.678,10.449,10.449,10.449
				s10.449-4.678,10.449-10.449V65.829C297.796,60.058,293.118,55.38,287.347,55.38z"/>
			<path d="M235.102,128.522c-5.771,0-10.449,4.678-10.449,10.449v19.853c0,5.771,4.678,10.449,10.449,10.449
				s10.449-4.678,10.449-10.449v-19.853C245.551,133.201,240.873,128.522,235.102,128.522z"/>
			<path d="M182.857,128.522c-5.771,0-10.449,4.678-10.449,10.449v19.853c0,5.771,4.678,10.449,10.449,10.449
				c5.771,0,10.449-4.678,10.449-10.449v-19.853C193.306,133.201,188.628,128.522,182.857,128.522z"/>
			<path d="M287.347,128.522c-5.771,0-10.449,4.678-10.449,10.449v19.853c0,5.771,4.678,10.449,10.449,10.449
				s10.449-4.678,10.449-10.449v-19.853C297.796,133.201,293.118,128.522,287.347,128.522z"/>
			<path d="M235.102,201.665c-5.771,0-10.449,4.678-10.449,10.449v19.853c0,5.771,4.678,10.449,10.449,10.449
				s10.449-4.678,10.449-10.449v-19.853C245.551,206.343,240.873,201.665,235.102,201.665z"/>
			<path d="M182.857,201.665c-5.771,0-10.449,4.678-10.449,10.449v19.853c0,5.771,4.678,10.449,10.449,10.449
				c5.771,0,10.449-4.678,10.449-10.449v-19.853C193.306,206.343,188.628,201.665,182.857,201.665z"/>
			<path d="M287.347,201.665c-5.771,0-10.449,4.678-10.449,10.449v19.853c0,5.771,4.678,10.449,10.449,10.449
				s10.449-4.678,10.449-10.449v-19.853C297.796,206.343,293.118,201.665,287.347,201.665z"/>
		</g>
	</g>
</g>
<g>
</g>
<g>
</g>
<g>
</g>
<g>
</g>
<g>
</g>
<g>
</g>
<g>
</g>
<g>
</g>
<g>
</g>
<g>
</g>
<g>
</g>
<g>
</g>
<g>
</g>
<g>
</g>
<g>
</g>
</svg>
