<?xml version="1.0" encoding="iso-8859-1"?>
<!-- Generator: Adobe Illustrator 19.0.0, SVG Export Plug-In . SVG Version: 6.00 Build 0)  -->
<svg version="1.1" id="Capa_1" xmlns="http://www.w3.org/2000/svg" xmlns:xlink="http://www.w3.org/1999/xlink" x="0px" y="0px"
	 viewBox="0 0 470.096 470.096" style="enable-background:new 0 0 470.096 470.096;" xml:space="preserve">
<g>
	<g>
		<path d="M434.136,65.801c-0.192-0.21-0.394-0.411-0.603-0.603c-17.939-18.133-42.411-28.299-67.918-28.212
			c-9.945-0.053-19.83,1.536-29.257,4.702l-28.735-28.735c-17.33-17.27-45.364-17.27-62.694,0
			c-8.732,8.076-13.662,19.453-13.584,31.347c-0.029,11.778,4.677,23.074,13.061,31.347l-111.282,64.261
			c-10.489-7.107-22.857-10.926-35.526-10.971c-35.491,0.006-64.257,28.781-64.251,64.271c0.006,35.482,28.768,64.245,64.251,64.251
			h6.269l103.445,83.592c-21.233,8.849-36.428,27.99-40.229,50.678h-3.657c-26.686,0.829-48.044,22.417-48.588,49.11v18.808
			c0.792,6.018,5.947,10.501,12.016,10.449h213.159c5.482,0.008,9.933-4.43,9.94-9.913c0-0.179-0.004-0.358-0.014-0.536v-18.808
			c0-26.122-20.376-49.11-46.498-49.11h-8.882c-5.279-29.57-29.223-52.242-59.037-55.902L127.9,249.1
			c30.956-16.145,42.963-54.328,26.818-85.284c-1.7-3.259-3.681-6.364-5.92-9.279l110.759-63.739l13.584,13.584
			c-11.327,34.319-1.985,72.092,24.033,97.175c3.706,4.04,9.986,4.31,14.025,0.603c0.21-0.192,0.411-0.394,0.603-0.603
			l32.914-32.914c7.486,7.065,17.396,10.992,27.69,10.971c21.641-0.019,39.168-17.578,39.149-39.218
			c-0.009-10.372-4.13-20.317-11.459-27.655l33.437-32.914C437.573,76.12,437.843,69.84,434.136,65.801z M303.443,412.626
			c14.629,0,25.6,14.106,25.6,28.212v8.359H135.737v-8.359c0.52-15.16,12.542-27.409,27.69-28.212H303.443z M237.534,355.598
			c18.613,2.916,33.214,17.517,36.13,36.13h-85.682C191.688,368.068,213.873,351.892,237.534,355.598z M97.598,236.561
			c-23.949,0-43.363-19.414-43.363-43.363c0-23.949,19.414-43.363,43.363-43.363c23.949,0,43.363,19.414,43.363,43.363
			C140.962,217.146,121.547,236.561,97.598,236.561z M259.557,61.018c-4.694-4.287-7.351-10.362-7.314-16.718
			c0.088-6.33,2.725-12.358,7.314-16.718c9.424-8.761,24.013-8.761,33.437,0l22.988,22.988c-6.826,4.116-13.139,9.026-18.808,14.629
			c-5.755,5.534-10.682,11.868-14.629,18.808L259.557,61.018z M385.468,154.014c-7.39,6.773-18.732,6.773-26.122,0l26.122-26.122
			C392.241,135.282,392.241,146.624,385.468,154.014z M305.011,179.091c-9.982-12.868-15.486-28.646-15.673-44.931
			c-0.29-41.837,33.392-75.988,75.229-76.278c0.349-0.002,0.699-0.002,1.049,0c16.41-0.116,32.395,5.213,45.453,15.151
			L305.011,179.091z"/>
	</g>
</g>
<g>
</g>
<g>
</g>
<g>
</g>
<g>
</g>
<g>
</g>
<g>
</g>
<g>
</g>
<g>
</g>
<g>
</g>
<g>
</g>
<g>
</g>
<g>
</g>
<g>
</g>
<g>
</g>
<g>
</g>
</svg>
