<?xml version="1.0" encoding="iso-8859-1"?>
<!-- Generator: Adobe Illustrator 19.0.0, SVG Export Plug-In . SVG Version: 6.00 Build 0)  -->
<svg version="1.1" id="Capa_1" xmlns="http://www.w3.org/2000/svg" xmlns:xlink="http://www.w3.org/1999/xlink" x="0px" y="0px"
	 viewBox="0 0 500.165 500.165" style="enable-background:new 0 0 500.165 500.165;" xml:space="preserve">
<g>
	<g>
		<g>
			<path d="M96.653,153.226c1.929,1.969,4.558,3.095,7.314,3.135c2.756-0.039,5.385-1.166,7.314-3.135l31.869-30.824
				c3.8-4.336,3.8-10.815,0-15.151c-3.706-4.04-9.986-4.31-14.025-0.603c-0.21,0.192-0.411,0.394-0.603,0.603l-31.869,31.347
				c-4.04,3.706-4.31,9.986-0.603,14.025C96.242,152.833,96.443,153.034,96.653,153.226z"/>
			<path d="M155.69,94.712c1.929,1.969,4.558,3.095,7.314,3.135c2.756-0.039,5.385-1.166,7.314-3.135l24.033-24.033
				c4.617-3.462,5.552-10.012,2.09-14.629c-3.462-4.617-10.012-5.552-14.629-2.09c-0.792,0.594-1.496,1.298-2.09,2.09L155.69,80.084
				c-4.04,3.706-4.31,9.986-0.603,14.025C155.279,94.319,155.48,94.52,155.69,94.712z"/>
			<path d="M203.233,47.169c1.929,1.969,4.558,3.095,7.314,3.135c2.915-0.013,5.717-1.134,7.837-3.135l17.241-17.763
				c3.653-4.466,3.43-10.948-0.522-15.151c-4.204-3.841-10.709-3.609-14.629,0.522l-17.241,17.763
				c-4.04,3.706-4.31,9.986-0.603,14.025C202.822,46.776,203.023,46.977,203.233,47.169z"/>
			<path d="M219.429,120.835l-56.947,57.469c-4.047,4.24-4.047,10.911,0,15.151c1.929,1.969,4.558,3.095,7.314,3.135
				c2.937,0.104,5.781-1.034,7.837-3.135l56.947-57.469c3.653-4.466,3.43-10.948-0.522-15.151
				C229.892,117.11,223.593,117.11,219.429,120.835z"/>
			<path d="M250.776,105.161c1.929,1.969,4.558,3.095,7.314,3.135c2.756-0.039,5.385-1.166,7.314-3.135l42.318-42.841
				c4.047-4.24,4.047-10.911,0-15.151c-4.204-3.841-10.709-3.609-14.629,0.522l-42.318,42.841c-4.04,3.706-4.31,9.986-0.603,14.025
				C250.365,104.768,250.566,104.969,250.776,105.161z"/>
			<path d="M159.869,347.055c2.653-0.075,5.214-0.989,7.314-2.612l98.743-99.265c3.462-4.617,2.527-11.166-2.09-14.629
				c-3.715-2.786-8.824-2.786-12.539,0l-98.743,98.743c-4.047,4.24-4.047,10.911,0,15.151
				C154.655,346.066,157.216,346.98,159.869,347.055z"/>
			<path d="M270.025,225.244c0.192,0.21,0.394,0.411,0.603,0.603c1.929,1.969,4.558,3.095,7.314,3.135
				c2.782,0.089,5.46-1.059,7.314-3.135l83.069-82.547c3.463-4.617,2.527-11.166-2.09-14.629c-3.715-2.786-8.824-2.786-12.539,0
				l-83.069,82.547C266.589,214.925,266.319,221.204,270.025,225.244z"/>
			<path d="M349.518,280.704c-4.24-4.047-10.911-4.047-15.151,0l-57.469,57.469c-4.04,3.706-4.31,9.986-0.603,14.025
				c0.192,0.21,0.394,0.411,0.603,0.603c1.929,1.969,4.558,3.095,7.314,3.135c2.937,0.104,5.781-1.034,7.837-3.135l57.469-57.469
				C353.243,291.168,353.243,284.869,349.518,280.704z"/>
			<path d="M361.454,268.084c0.192,0.21,0.394,0.411,0.603,0.603c3.706,4.04,9.986,4.31,14.025,0.603
				c0.21-0.192,0.411-0.394,0.603-0.603l24.033-24.555c4.617-3.463,5.552-10.012,2.09-14.629c-3.463-4.617-10.012-5.552-14.629-2.09
				c-0.792,0.594-1.496,1.298-2.09,2.09l-24.033,24.555C358.018,257.766,357.747,264.045,361.454,268.084z"/>
			<path d="M426.318,309.439c-4.24-4.047-10.911-4.047-15.151,0l-56.947,57.469c-4.047,4.24-4.047,10.911,0,15.151
				c3.706,4.04,9.986,4.31,14.025,0.603c0.21-0.192,0.411-0.394,0.603-0.603l57.469-57.992c4.04-3.706,4.31-9.986,0.603-14.025
				C426.729,309.832,426.528,309.631,426.318,309.439z"/>
			<path d="M497.371,238.908c-4.24-4.047-10.911-4.047-15.151,0l-47.02,46.498c-4.047,4.24-4.047,10.911,0,15.151
				c3.706,4.04,9.986,4.31,14.025,0.603c0.21-0.192,0.411-0.394,0.603-0.603l47.543-47.02
				C501.096,249.372,501.096,243.073,497.371,238.908z"/>
			<path d="M48.588,295.333h3.135c2.756-0.039,5.385-1.166,7.314-3.135l23.51-24.033l32.914,5.747
				c3.973,0.524,7.933-1.06,10.449-4.18c2.237-3.263,2.44-7.51,0.522-10.971l-15.151-30.302l15.151-29.257
				c1.917-3.461,1.715-7.708-0.522-10.971c-2.516-3.12-6.476-4.703-10.449-4.18l-32.914,5.747l-23.51-24.555
				c-2.787-2.638-6.749-3.629-10.449-2.612c-4.08,1.102-7.016,4.666-7.314,8.882l-5.224,33.437l-29.78,14.629
				c-3.593,1.82-5.972,5.387-6.269,9.404c0.068,4.092,2.518,7.768,6.269,9.404l29.78,15.151l5.224,33.437
				C42.114,290.831,44.876,293.987,48.588,295.333z M33.959,228.982l16.196-7.837c3.031-1.575,5.156-4.472,5.747-7.837l2.612-17.763
				l12.539,13.061c2.457,2.482,5.949,3.646,9.404,3.135l17.763-3.135l-8.359,15.673c-1.582,3.12-1.582,6.807,0,9.927l8.359,16.196
				l-17.763-3.135c-3.308-0.62-6.695,0.576-8.882,3.135l-12.539,12.539l-3.135-17.763c-0.419-3.435-2.596-6.405-5.747-7.837
				L33.959,228.982z"/>
			<path d="M170.841,363.251c-2.516-3.12-6.476-4.703-10.449-4.18l-35.004,5.747l-24.555-25.6
				c-2.949-2.729-7.109-3.719-10.971-2.612c-3.793,1.086-6.506,4.424-6.792,8.359l-5.747,35.004l-31.869,16.196
				c-3.64,1.686-5.907,5.396-5.747,9.404c0.088,3.939,2.282,7.529,5.747,9.404l31.869,15.673l5.747,35.004
				c0.286,3.935,2.998,7.273,6.792,8.359h3.135c2.937,0.104,5.781-1.034,7.837-3.135l24.555-25.078l35.004,5.747
				c4.108,0.652,8.212-1.195,10.449-4.702c2.237-3.263,2.44-7.51,0.522-10.971l-16.196-30.302l16.196-31.347
				C173.28,370.761,173.078,366.514,170.841,363.251z M133.747,410.271l9.404,17.763l-19.853-3.135
				c-3.308-0.62-6.695,0.576-8.882,3.135l-14.106,14.106l-3.135-19.853c-0.419-3.435-2.596-6.405-5.747-7.837l-17.763-8.882
				l17.763-9.404c3.01-1.334,5.163-4.074,5.747-7.314l3.135-19.853l13.584,14.629c2.457,2.482,5.949,3.646,9.404,3.135l19.853-3.657
				l-9.404,17.241C132.165,403.464,132.165,407.152,133.747,410.271z"/>
			<path d="M311.38,422.81l15.673-29.257c1.708-3.326,1.508-7.31-0.522-10.449c-2.173-3.553-6.425-5.254-10.449-4.18l-32.914,5.747
				l-22.988-24.033c-2.996-2.639-7.107-3.618-10.971-2.612c-3.56,1.559-6.241,4.623-7.314,8.359l-4.18,32.914l-29.78,14.629
				c-3.465,1.875-5.659,5.465-5.747,9.404c-0.16,4.008,2.107,7.718,5.747,9.404l29.78,14.629l4.18,32.914
				c0.743,3.906,3.542,7.104,7.314,8.359h3.135c2.937,0.104,5.781-1.034,7.837-3.135l22.988-23.51l32.914,5.747
				c3.974,0.524,7.933-1.06,10.449-4.18c2.237-3.263,2.44-7.51,0.522-10.971L311.38,422.81z M290.482,428.557l8.359,15.151
				l-17.763-2.612c-3.214-0.748-6.584,0.244-8.882,2.612l-12.539,12.539l-2.09-17.241c-0.419-3.435-2.596-6.405-5.747-7.837
				l-15.673-7.837l15.673-8.359c3.222-1.343,5.434-4.36,5.747-7.837l2.09-16.718l12.539,12.539c2.186,2.559,5.573,3.754,8.882,3.135
				l17.763-3.135l-8.359,15.673C288.937,421.72,289.049,425.412,290.482,428.557z"/>
		</g>
	</g>
</g>
<g>
</g>
<g>
</g>
<g>
</g>
<g>
</g>
<g>
</g>
<g>
</g>
<g>
</g>
<g>
</g>
<g>
</g>
<g>
</g>
<g>
</g>
<g>
</g>
<g>
</g>
<g>
</g>
<g>
</g>
</svg>
