<?xml version="1.0" encoding="iso-8859-1"?>
<!-- Generator: Adobe Illustrator 19.0.0, SVG Export Plug-In . SVG Version: 6.00 Build 0)  -->
<svg version="1.1" id="Capa_1" xmlns="http://www.w3.org/2000/svg" xmlns:xlink="http://www.w3.org/1999/xlink" x="0px" y="0px"
	 viewBox="0 0 459.599 459.599" style="enable-background:new 0 0 459.599 459.599;" xml:space="preserve">
<g>
	<g>
		<g>
			<path d="M271.595,88.659h-83.592c-5.771,0-10.449,4.678-10.449,10.449s4.678,10.449,10.449,10.449h83.592
				c5.771,0,10.449-4.678,10.449-10.449S277.366,88.659,271.595,88.659z"/>
			<path d="M271.595,125.231h-83.592c-5.771,0-10.449,4.678-10.449,10.449s4.678,10.449,10.449,10.449h83.592
				c5.771,0,10.449-4.678,10.449-10.449S277.366,125.231,271.595,125.231z"/>
			<path d="M271.595,323.761h-83.592c-5.771,0-10.449,4.678-10.449,10.449s4.678,10.449,10.449,10.449h83.592
				c5.771,0,10.449-4.678,10.449-10.449S277.366,323.761,271.595,323.761z"/>
			<path d="M271.595,360.333h-83.592c-5.771,0-10.449,4.678-10.449,10.449s4.678,10.449,10.449,10.449h83.592
				c5.771,0,10.449-4.678,10.449-10.449S277.366,360.333,271.595,360.333z"/>
			<path d="M362.534,287.19c-0.359-0.022-0.719-0.022-1.078,0h-27.167V172.251h27.167c4.896,0.298,9.107-3.43,9.404-8.326
				c0.022-0.359,0.022-0.719,0-1.078v-43.886c0.298-4.896-3.43-9.107-8.326-9.404c-0.359-0.022-0.719-0.022-1.078,0h-27.167
				c0.189-17.629-5.307-34.85-15.673-49.11l-14.629-21.42c-28.368-41.073-84.661-51.373-125.735-23.004
				c-8.82,6.092-16.487,13.705-22.641,22.482l-14.629,21.943c-10.367,14.26-15.863,31.481-15.673,49.11H98.142
				c-4.896-0.298-9.107,3.43-9.404,8.326c-0.022,0.359-0.022,0.719,0,1.078v43.886c-0.298,4.896,3.43,9.107,8.326,9.404
				c0.359,0.022,0.719,0.022,1.078,0h27.167V287.19H98.142c-4.896-0.298-9.107,3.43-9.404,8.326c-0.022,0.359-0.022,0.719,0,1.078
				v43.886c-0.298,4.896,3.43,9.107,8.326,9.404c0.359,0.022,0.719,0.022,1.078,0h27.167c-0.189,17.629,5.307,34.85,15.673,49.11
				l14.629,21.42c16.677,24.583,44.482,39.269,74.188,39.184c29.564,0.022,57.27-14.417,74.188-38.661l14.629-21.943
				c10.268-14.31,15.753-31.498,15.673-49.11h27.167c4.896,0.298,9.107-3.43,9.404-8.326c0.022-0.359,0.022-0.719,0-1.078v-43.886
				C371.158,291.698,367.43,287.488,362.534,287.19z M334.289,130.455h15.673v20.898h-15.673V130.455z M125.309,328.986h-15.673
				v-20.898h15.673V328.986z M125.309,151.353h-15.673v-20.898h15.673V151.353z M313.391,348.839
				c-0.039,13.963-4.221,27.6-12.016,39.184l-14.629,20.898c-12.915,18.705-34.217,29.844-56.947,29.78
				c-22.73,0.065-44.032-11.075-56.947-29.78l-14.629-20.898c-7.796-11.584-11.978-25.221-12.016-39.184V110.602
				c0.039-13.963,4.221-27.6,12.016-39.184l14.629-20.898c21.99-31.451,65.312-39.121,96.763-17.131
				c6.669,4.663,12.468,10.462,17.131,17.131l14.629,20.898c7.796,11.584,11.978,25.221,12.016,39.184V348.839z M349.963,328.986
				h-15.673v-20.898h15.673V328.986z"/>
		</g>
	</g>
</g>
<g>
</g>
<g>
</g>
<g>
</g>
<g>
</g>
<g>
</g>
<g>
</g>
<g>
</g>
<g>
</g>
<g>
</g>
<g>
</g>
<g>
</g>
<g>
</g>
<g>
</g>
<g>
</g>
<g>
</g>
</svg>
