<?xml version="1.0" encoding="iso-8859-1"?>
<!-- Generator: Adobe Illustrator 19.0.0, SVG Export Plug-In . SVG Version: 6.00 Build 0)  -->
<svg version="1.1" id="Capa_1" xmlns="http://www.w3.org/2000/svg" xmlns:xlink="http://www.w3.org/1999/xlink" x="0px" y="0px"
	 viewBox="0 0 405.5 405.5" style="enable-background:new 0 0 405.5 405.5;" xml:space="preserve">
<g>
	<g>
		<path d="M323,0H82.6c-6.2,0.8-10.8,6.3-10.4,12.5v382.4c0,3.8,2,7.4,5.2,9.4c3.3,1.6,7.1,1.6,10.4,0l115-70.4l114.9,70.5
			c1.6,0.9,3.4,1.3,5.2,1c1.8,0.2,3.6-0.2,5.2-1c3.3-2,5.2-5.6,5.2-9.4V12.6C333.7,6.3,329.2,0.9,323,0z M312.5,376.7L208,312.4
			c-3.2-2.1-7.3-2.1-10.4,0L93.1,376.7V104.5h219.4V376.7z M312.5,83.6H93.1V20.9h219.4V83.6z"/>
	</g>
</g>
<g>
	<g>
		<path d="M267,155.8c-3.7-2.8-8.8-2.8-12.5,0L140.1,269.6c-4,4.3-4,10.9,0,15.2c4.2,3.5,10.4,3.5,14.6,0l114.4-114.4
			C272.6,165.8,271.6,159.2,267,155.8z"/>
	</g>
</g>
<g>
	<g>
		<path d="M243,224.7c-20.6,0-37.4,16.7-37.4,37.4c0,20.6,16.7,37.4,37.4,37.4c20.6,0,37.4-16.7,37.4-37.4
			C280.4,241.4,263.7,224.7,243,224.7z M243,278.8c-9.3,0-16.8-7.5-16.8-16.8c0-9.3,7.5-16.8,16.8-16.8s16.8,7.6,16.8,16.9
			C259.8,271.3,252.3,278.8,243,278.8z"/>
	</g>
</g>
<g>
	<g>
		<path d="M162.6,144.2c-20.6,0-37.4,16.7-37.4,37.4c0,20.6,16.7,37.4,37.4,37.4c20.6,0,37.4-16.7,37.4-37.4
			C199.9,161,183.2,144.2,162.6,144.2z M162.6,198.4c-9.3,0-16.8-7.5-16.8-16.8s7.5-16.8,16.8-16.8c9.3,0,16.8,7.5,16.8,16.8
			C179.3,190.9,171.8,198.4,162.6,198.4z"/>
	</g>
</g>
<g>
</g>
<g>
</g>
<g>
</g>
<g>
</g>
<g>
</g>
<g>
</g>
<g>
</g>
<g>
</g>
<g>
</g>
<g>
</g>
<g>
</g>
<g>
</g>
<g>
</g>
<g>
</g>
<g>
</g>
</svg>
