<?xml version="1.0" encoding="iso-8859-1"?>
<!-- Generator: Adobe Illustrator 19.0.0, SVG Export Plug-In . SVG Version: 6.00 Build 0)  -->
<svg version="1.1" id="Capa_1" xmlns="http://www.w3.org/2000/svg" xmlns:xlink="http://www.w3.org/1999/xlink" x="0px" y="0px"
	 viewBox="0 0 470.363 470.363" style="enable-background:new 0 0 470.363 470.363;" xml:space="preserve">
<g>
	<g>
		<g>
			<path d="M331.353,40.469c-0.192-0.21-0.394-0.411-0.603-0.603c-53.004-53.091-139.011-53.163-192.102-0.159
				c-0.053,0.053-0.106,0.106-0.159,0.159c-3.462,4.617-2.527,11.166,2.09,14.629c3.715,2.786,8.824,2.786,12.539,0
				c45.058-44.902,117.946-44.902,163.004,0c3.706,4.04,9.986,4.31,14.025,0.603c0.21-0.192,0.411-0.394,0.603-0.603
				C334.789,50.788,335.059,44.508,331.353,40.469z"/>
			<path d="M197.003,94.722c0.792-0.594,1.496-1.298,2.09-2.09c19.54-19.322,50.99-19.322,70.531,0
				c3.706,4.04,9.986,4.31,14.025,0.603c0.21-0.192,0.411-0.394,0.603-0.603c4.04-3.706,4.31-9.986,0.603-14.025
				c-0.192-0.21-0.394-0.411-0.603-0.603c-27.532-27.556-72.19-27.575-99.745-0.042c-0.014,0.014-0.028,0.028-0.042,0.042
				c-4.617,3.462-5.552,10.012-2.09,14.629C185.837,97.249,192.386,98.185,197.003,94.722z"/>
			<path d="M293.656,141.22H176.105c-16.986,0.836-30.323,14.863-30.302,31.869v268.016c0.563,16.326,13.966,29.267,30.302,29.257
				h117.029c16.336,0.01,29.739-12.931,30.302-29.257V173.09C323.472,156.274,310.436,142.323,293.656,141.22z M302.539,172.016
				c-0.001,0.01-0.001,0.019-0.002,0.029v267.494c0.007,5.285-4.127,9.648-9.404,9.927H176.105
				c-4.896,0.297-9.106-3.432-9.402-8.329c-0.001-0.01-0.001-0.02-0.002-0.031V173.09c-0.056-5.497,3.964-10.186,9.404-10.971
				h117.551C298.842,162.398,302.819,166.83,302.539,172.016z"/>
			<path d="M203.272,193.465c-5.771,0-10.449,4.678-10.449,10.449v14.629c0,5.771,4.678,10.449,10.449,10.449
				s10.449-4.678,10.449-10.449v-14.629C213.721,198.143,209.043,193.465,203.272,193.465z"/>
			<path d="M260.741,193.465c-5.771,0-10.449,4.678-10.449,10.449v14.629c0,5.771,4.678,10.449,10.449,10.449
				c5.771,0,10.449-4.678,10.449-10.449v-14.629C271.19,198.143,266.512,193.465,260.741,193.465z"/>
			<path d="M203.272,260.861c-5.771,0-10.449,4.678-10.449,10.449v14.106c0,5.771,4.678,10.449,10.449,10.449
				s10.449-4.678,10.449-10.449V271.31C213.721,265.539,209.043,260.861,203.272,260.861z"/>
			<path d="M260.741,260.861c-5.771,0-10.449,4.678-10.449,10.449v14.106c0,5.771,4.678,10.449,10.449,10.449
				c5.771,0,10.449-4.678,10.449-10.449V271.31C271.19,265.539,266.512,260.861,260.741,260.861z"/>
			<path d="M203.272,327.735c-5.771,0-10.449,4.678-10.449,10.449v14.629c0,5.771,4.678,10.449,10.449,10.449
				s10.449-4.678,10.449-10.449v-14.629C213.721,332.413,209.043,327.735,203.272,327.735z"/>
			<path d="M260.741,327.735c-5.771,0-10.449,4.678-10.449,10.449v14.629c0,5.771,4.678,10.449,10.449,10.449
				c5.771,0,10.449-4.678,10.449-10.449v-14.629C271.19,332.413,266.512,327.735,260.741,327.735z"/>
		</g>
	</g>
</g>
<g>
</g>
<g>
</g>
<g>
</g>
<g>
</g>
<g>
</g>
<g>
</g>
<g>
</g>
<g>
</g>
<g>
</g>
<g>
</g>
<g>
</g>
<g>
</g>
<g>
</g>
<g>
</g>
<g>
</g>
</svg>
