<?xml version="1.0" encoding="iso-8859-1"?>
<!-- Generator: Adobe Illustrator 19.0.0, SVG Export Plug-In . SVG Version: 6.00 Build 0)  -->
<svg version="1.1" id="Capa_1" xmlns="http://www.w3.org/2000/svg" xmlns:xlink="http://www.w3.org/1999/xlink" x="0px" y="0px"
	 viewBox="0 0 462.898 462.898" style="enable-background:new 0 0 462.898 462.898;" xml:space="preserve">
<g>
	<g>
		<path d="M304.592,122.78V74.192c16.065-4.748,27.245-19.303,27.69-36.049c-0.038-20.775-16.91-37.586-37.684-37.548
			c-20.775,0.038-37.586,16.91-37.548,37.685c0.03,16.524,10.84,31.093,26.645,35.912v42.841
			c-17.078-4.299-34.634-6.406-52.245-6.269c-17.611-0.137-35.167,1.97-52.245,6.269V74.192c19.91-5.933,31.24-26.883,25.307-46.792
			c-4.776-16.025-19.557-26.974-36.278-26.873c-20.486-0.002-37.096,16.604-37.098,37.09c0,0.175,0.001,0.351,0.004,0.526
			c0.209,16.661,11.209,31.257,27.167,36.049v48.588C63.42,153.694-0.586,242.415,0.004,342.208c0,5.771,4.678,10.449,10.449,10.449
			h27.69v49.11c0,34.482,30.302,60.604,65.306,60.604h256c35.004,0,65.306-26.122,65.306-60.604v-49.11h27.69
			c5.771,0,10.449-4.678,10.449-10.449C463.484,242.415,399.478,153.694,304.592,122.78z M277.947,38.143
			c0-9.233,7.485-16.718,16.718-16.718c9.233,0,16.718,7.485,16.718,16.718s-7.485,16.718-16.718,16.718
			C285.547,54.589,278.219,47.261,277.947,38.143z M151.514,38.143c0-9.233,7.485-16.718,16.718-16.718
			c9.233,0,16.718,7.485,16.718,16.718c-0.272,9.118-7.6,16.446-16.718,16.718C158.999,54.862,151.514,47.376,151.514,38.143z
			 M403.857,401.768c0,22.988-20.898,39.706-44.408,39.706h-256c-23.51,0-44.408-16.718-44.408-39.706V351.09
			c0-93.518,78.89-169.796,172.408-169.796s172.408,76.278,172.408,169.796V401.768z M421.62,331.76
			c-11.069-96.924-92.622-170.411-190.171-171.363C133.9,161.348,52.347,234.836,41.277,331.76H20.902
			c6.343-111.828,98.541-199.45,210.547-200.098c112.005,0.648,204.204,88.27,210.547,200.098H421.62z"/>
	</g>
</g>
<g>
</g>
<g>
</g>
<g>
</g>
<g>
</g>
<g>
</g>
<g>
</g>
<g>
</g>
<g>
</g>
<g>
</g>
<g>
</g>
<g>
</g>
<g>
</g>
<g>
</g>
<g>
</g>
<g>
</g>
</svg>
