<?xml version="1.0" encoding="iso-8859-1"?>
<!-- Generator: Adobe Illustrator 19.0.0, SVG Export Plug-In . SVG Version: 6.00 Build 0)  -->
<svg version="1.1" id="Capa_1" xmlns="http://www.w3.org/2000/svg" xmlns:xlink="http://www.w3.org/1999/xlink" x="0px" y="0px"
	 viewBox="0 0 376.195 376.195" style="enable-background:new 0 0 376.195 376.195;" xml:space="preserve">
<g>
	<g>
		<g>
			<path d="M191.232,188.065c-0.01-16.735-13.585-30.294-30.32-30.284c-16.721,0.01-30.274,13.563-30.284,30.284
				c-0.002,16.822,13.483,30.539,30.302,30.824C177.749,218.604,191.234,204.887,191.232,188.065z M160.938,197.477
				c-5.194,0.005-9.408-4.202-9.412-9.396c0-0.006,0-0.011,0-0.017c0-5.194,4.21-9.404,9.404-9.404s9.404,4.21,9.404,9.404
				C170.339,193.259,166.132,197.473,160.938,197.477z"/>
			<path d="M61.111,308.228c0.358,0.021,0.717,0.021,1.076,0h251.82c5.185,0.297,9.629-3.666,9.927-8.851
				c0.021-0.358,0.021-0.717,0-1.076V135.298c0.297-5.185-3.666-9.63-8.851-9.927c-0.358-0.021-0.717-0.021-1.076,0H62.187
				c-5.185-0.297-9.629,3.666-9.927,8.851c-0.021,0.358-0.021,0.717,0,1.076v83.592v79.412
				C51.964,303.487,55.926,307.931,61.111,308.228z M303.036,287.33H161.452l65.829-47.02l75.755,25.078V287.33z M73.159,146.269
				h229.878v97.175l-74.71-24.033c-2.968-1-6.227-0.617-8.882,1.045l-44.408,32.392L73.159,212.098V146.269z M73.159,234.563
				l81.502,32.392l-29.257,20.376H73.159V234.563z"/>
			<path d="M367.328,73.126c-0.358-0.021-0.717-0.021-1.076,0H244.522l-48.588-54.335c-4.414-4.114-11.259-4.114-15.673,0
				l-48.588,54.335H9.942c-5.185-0.297-9.63,3.666-9.927,8.851c-0.021,0.358-0.021,0.717,0,1.076v267.494
				c-0.297,5.185,3.666,9.63,8.851,9.927c0.358,0.021,0.717,0.021,1.076,0h356.31c5.185,0.297,9.63-3.666,9.927-8.851
				c0.021-0.358,0.021-0.717,0-1.076V83.053C376.476,77.868,372.513,73.423,367.328,73.126z M188.097,41.779l28.212,31.347h-56.424
				L188.097,41.779z M355.281,339.575H20.914V94.024h334.367V339.575z"/>
		</g>
	</g>
</g>
<g>
</g>
<g>
</g>
<g>
</g>
<g>
</g>
<g>
</g>
<g>
</g>
<g>
</g>
<g>
</g>
<g>
</g>
<g>
</g>
<g>
</g>
<g>
</g>
<g>
</g>
<g>
</g>
<g>
</g>
</svg>
