<?xml version="1.0" encoding="iso-8859-1"?>
<!-- Generator: Adobe Illustrator 19.0.0, SVG Export Plug-In . SVG Version: 6.00 Build 0)  -->
<svg version="1.1" id="Capa_1" xmlns="http://www.w3.org/2000/svg" xmlns:xlink="http://www.w3.org/1999/xlink" x="0px" y="0px"
	 viewBox="0 0 494.25 494.25" style="enable-background:new 0 0 494.25 494.25;" xml:space="preserve">
<g>
	<g>
		<path d="M110.175,147.287c-3.8-1.8-8.3-1.2-11.5,1.6l-95.6,90.4c-4.1,4.4-4.1,11.3,0,15.7l95.6,90.4c2.1,1.6,4.7,2.5,7.3,2.6
			l4.2-1c3.8-1.6,6.2-5.3,6.3-9.4v-180.9C116.375,152.587,113.975,148.887,110.175,147.287z M95.575,313.487l-70-66.4l70-66.4
			V313.487z"/>
	</g>
</g>
<g>
	<g>
		<path d="M491.175,239.287l-95.7-90.4c-4.7-3.8-11.6-3-15.4,1.8c-1.4,1.7-2.2,3.8-2.3,6.1v180.8c0.1,4.1,2.5,7.8,6.3,9.4l4.2,1
			c2.7-0.1,5.2-1,7.3-2.6l95.6-90.4C495.275,250.587,495.275,243.687,491.175,239.287z M398.575,313.487v-132.8l70,66.4
			L398.575,313.487z"/>
	</g>
</g>
<g>
	<g>
		<path d="M341.175,173.987h-188.1c-5.8,0-10.4,4.7-10.4,10.4v130.6c0,5.8,4.7,10.4,10.4,10.4h188c5.8,0,10.4-4.7,10.4-10.4v-130.6
			h0.1C351.575,178.587,346.875,173.987,341.175,173.987z M163.475,303.287v-108.4h167.2v108.4H163.475z"/>
	</g>
</g>
<g>
</g>
<g>
</g>
<g>
</g>
<g>
</g>
<g>
</g>
<g>
</g>
<g>
</g>
<g>
</g>
<g>
</g>
<g>
</g>
<g>
</g>
<g>
</g>
<g>
</g>
<g>
</g>
<g>
</g>
</svg>
