<?xml version="1.0" encoding="iso-8859-1"?>
<!-- Generator: Adobe Illustrator 19.0.0, SVG Export Plug-In . SVG Version: 6.00 Build 0)  -->
<svg version="1.1" id="Capa_1" xmlns="http://www.w3.org/2000/svg" xmlns:xlink="http://www.w3.org/1999/xlink" x="0px" y="0px"
	 viewBox="0 0 480.703 480.703" style="enable-background:new 0 0 480.703 480.703;" xml:space="preserve">
<g>
	<g>
		<g>
			<path d="M374.098,67.968h-39.706V41.323c-0.547-6.035-5.883-10.483-11.917-9.936c-0.033,0.003-0.066,0.006-0.099,0.009h-36.049
				c-6.891-19.559-25.782-32.295-46.498-31.347c-20.668-0.777-39.467,11.896-46.498,31.347h-35.527
				c-5.741-0.583-10.868,3.599-11.451,9.34c-0.02,0.195-0.034,0.391-0.043,0.586v26.645h-39.706
				c-26.122,0-49.11,20.375-49.11,46.498v319.739c0,26.122,22.988,46.498,49.11,46.498h267.494c26.122,0,49.11-20.376,49.11-46.498
				V114.466C423.208,88.343,400.221,67.968,374.098,67.968z M167.208,52.294h33.959c4.848-0.145,8.959-3.607,9.927-8.359
				c3.094-13.474,14.915-23.146,28.735-23.51c13.605,0.17,25.298,9.697,28.212,22.988c0.976,5.041,5.317,8.731,10.449,8.882h35.004
				v47.02H167.208V52.294z M402.31,434.205c0,14.629-13.584,25.6-28.212,25.6H106.604c-14.629,0-28.212-10.971-28.212-25.6V114.466
				c0-14.629,13.584-25.6,28.212-25.6h39.706v22.988c0,5.747,5.747,8.359,11.494,8.359h164.571c5.747,0,12.016-2.612,12.016-8.359
				V88.866h39.706c14.629,0,28.212,10.971,28.212,25.6V434.205z"/>
			<path d="M284.759,197.013c-16.61,0.127-32.525,6.68-44.408,18.286c-11.756-11.797-27.754-18.385-44.408-18.286
				c-35.202,0-63.739,28.537-63.739,63.739c0,25.078,17.763,52.245,52.767,80.98c15.781,12.801,32.552,24.331,50.155,34.482
				c3.162,2.113,7.286,2.113,10.449,0c4.18-2.09,102.922-56.424,102.922-115.461C348.498,225.55,319.961,197.013,284.759,197.013z
				 M240.351,355.315c-28.212-16.718-87.249-59.037-87.249-94.563c0-23.66,19.18-42.841,42.841-42.841
				c14.223-0.527,27.69,6.405,35.526,18.286c2.016,2.862,5.391,4.45,8.882,4.18c3.365,0.211,6.64-1.138,8.882-3.657
				c7.852-11.926,21.249-19.019,35.526-18.808c23.66,0,42.841,19.181,42.841,42.841C327.6,296.801,268.564,338.596,240.351,355.315z
				"/>
		</g>
	</g>
</g>
<g>
</g>
<g>
</g>
<g>
</g>
<g>
</g>
<g>
</g>
<g>
</g>
<g>
</g>
<g>
</g>
<g>
</g>
<g>
</g>
<g>
</g>
<g>
</g>
<g>
</g>
<g>
</g>
<g>
</g>
</svg>
