<?xml version="1.0" encoding="iso-8859-1"?>
<!-- Generator: Adobe Illustrator 19.0.0, SVG Export Plug-In . SVG Version: 6.00 Build 0)  -->
<svg version="1.1" id="Capa_1" xmlns="http://www.w3.org/2000/svg" xmlns:xlink="http://www.w3.org/1999/xlink" x="0px" y="0px"
	 viewBox="0 0 461.322 461.322" style="enable-background:new 0 0 461.322 461.322;" xml:space="preserve">
<g>
	<g>
		<g>
			<path d="M230.661,312.947c45.761,0.004,83.02-36.789,83.592-82.547V83.592C314.253,37.425,276.828,0,230.661,0
				s-83.592,37.425-83.592,83.592v147.331C147.643,276.596,184.985,313.238,230.661,312.947z M207.151,215.771h-39.184v-31.347
				h39.184c5.771,0,10.449-4.678,10.449-10.449c0-5.771-4.678-10.449-10.449-10.449h-39.184V132.18h39.184
				c5.771,0,10.449-4.678,10.449-10.449s-4.678-10.449-10.449-10.449h-39.184v-27.69c0.625-30.014,22.608-55.295,52.245-60.082
				v42.841c0,5.771,4.678,10.449,10.449,10.449s10.449-4.678,10.449-10.449V23.51c29.637,4.787,51.62,30.067,52.245,60.082v27.69
				h-39.184c-5.771,0-10.449,4.678-10.449,10.449s4.678,10.449,10.449,10.449h39.184v31.347h-39.184
				c-5.771,0-10.449,4.678-10.449,10.449c0,5.771,4.678,10.449,10.449,10.449h39.184v31.347h-39.184
				c-5.771,0-10.449,4.678-10.449,10.449s4.678,10.449,10.449,10.449h37.094c-3.118,33.615-32.895,58.338-66.51,55.22
				c-29.298-2.717-52.503-25.922-55.22-55.22h37.616c5.771,0,10.449-4.678,10.449-10.449S212.922,215.771,207.151,215.771z"/>
			<path d="M356.049,161.437c-5.771,0-10.449,4.678-10.449,10.449v59.037c0,63.479-51.46,114.939-114.939,114.939
				s-114.939-51.46-114.939-114.939v-59.037c0-5.771-4.678-10.449-10.449-10.449s-10.449,4.678-10.449,10.449v59.037
				c-0.486,71.323,54.274,130.874,125.388,136.359v73.143h-46.498c-5.771,0-10.449,4.678-10.449,10.449
				c0,5.771,4.678,10.449,10.449,10.449h113.894c5.771,0,10.449-4.678,10.449-10.449c0-5.771-4.678-10.449-10.449-10.449H241.11
				v-73.143c71.114-5.485,125.873-65.036,125.388-136.359v-59.037C366.498,166.115,361.82,161.437,356.049,161.437z"/>
		</g>
	</g>
</g>
<g>
</g>
<g>
</g>
<g>
</g>
<g>
</g>
<g>
</g>
<g>
</g>
<g>
</g>
<g>
</g>
<g>
</g>
<g>
</g>
<g>
</g>
<g>
</g>
<g>
</g>
<g>
</g>
<g>
</g>
</svg>
