<?xml version="1.0" encoding="iso-8859-1"?>
<!-- Generator: Adobe Illustrator 19.0.0, SVG Export Plug-In . SVG Version: 6.00 Build 0)  -->
<svg version="1.1" id="Capa_1" xmlns="http://www.w3.org/2000/svg" xmlns:xlink="http://www.w3.org/1999/xlink" x="0px" y="0px"
	 viewBox="0 0 463.713 463.713" style="enable-background:new 0 0 463.713 463.713;" xml:space="preserve">
<g>
	<g>
		<path d="M126.113,336.259c-6.8-7.2-14.6-13.5-23-18.8c-4.2-3.1-16.7-11-25.1-2.6c-8.4,8.4-0.5,20.9,2.6,25.1
			c5.3,8.4,11.6,16.2,18.8,23c6.8,7.4,14.5,13.9,23,19.3c4.9,3.6,10.7,5.8,16.7,6.3c3.3,0.1,6.6-1.3,8.9-3.7
			C157.113,376.159,149.713,359.959,126.113,336.259z"/>
	</g>
</g>
<g>
	<g>
		<path d="M420.213,42.659c-1.1-11.1-6.1-21.5-14.1-29.3c-20.3-17.1-52.6-16.6-69.7,3.7c-14.8,17.6-13.1,45.2,1.3,63.1l-52.2,52.2
			c-58.2-37.2-134.5-28.9-183.4,19.9l-84.6,84.6c-4.7,0.2-9.1,2-12.5,5.2c-27.7,27.7,67.9,125.4,79.4,136.4s85.2,84.1,122.8,84.1
			c5.1,0.2,10-1.7,13.6-5.2c3.1-3.3,4.9-7.5,5.2-12l84.6-84.6c48.8-48.9,57.1-125.2,19.9-183.4l52.2-52.2c19,17.5,48.4,17,66.9-1
			c8.9-9.1,13.9-21.3,14.1-34C463.713,65.459,444.813,44.859,420.213,42.659z M202.413,439.159l-1.6,2.1
			c-15.2-5.2-52.8-28.2-101.9-77.3c-49.1-49.1-72.6-86.7-77.3-101.9l2.1-1.6l1.6-2.1c15.7,5.2,52.8,28.2,101.9,77.3
			c49.1,49.1,72.1,86.2,76.8,101.9L202.413,439.159z M295.313,346.159l-75.2,75.8c-17.8-39.7-70.5-93-78.4-100.8
			c-7.8-7.8-61.1-60.6-100.8-78.4l75.8-75.8c49.5-49.3,129.6-49.2,178.9,0.3S344.813,296.859,295.313,346.159z M434.813,108.959
			c-10.6,10.4-27.6,10.4-38.1,0c-1.7-1.3-3.1-2.9-4.2-4.7c-1.6-2.9-4.5-4.8-7.8-5.2c-3.1-0.3-6.2,0.8-8.4,3.1l-58.5,58l-7.3-7.8
			c-2.5-2.7-5.3-5.2-8.4-7.3l58-58c2.5-2.2,3.7-5.6,3.1-8.9c-0.4-3.2-2.1-6-4.7-7.8l-5.2-3.7c-10.8-13.5-9.9-26.3-0.6-38.1
			c9.8-9.6,22.3-11.5,34.1-4.6c1.7,1.4,3.3,2.9,4.6,4.6c6.1,6,8.9,14.6,7.3,23c-0.5,3.5,0.7,6.9,3.1,9.4c2.5,2.4,6,3.3,9.4,2.6
			c8.5-1.3,17.2,1.4,23.5,7.3c4.9,5.3,7.7,12.1,7.8,19.3C442.413,97.259,439.713,103.859,434.813,108.959z"/>
	</g>
</g>
<g>
</g>
<g>
</g>
<g>
</g>
<g>
</g>
<g>
</g>
<g>
</g>
<g>
</g>
<g>
</g>
<g>
</g>
<g>
</g>
<g>
</g>
<g>
</g>
<g>
</g>
<g>
</g>
<g>
</g>
</svg>
