<?xml version="1.0" encoding="iso-8859-1"?>
<!-- Generator: Adobe Illustrator 19.0.0, SVG Export Plug-In . SVG Version: 6.00 Build 0)  -->
<svg version="1.1" id="Capa_1" xmlns="http://www.w3.org/2000/svg" xmlns:xlink="http://www.w3.org/1999/xlink" x="0px" y="0px"
	 viewBox="0 0 428.408 428.408" style="enable-background:new 0 0 428.408 428.408;" xml:space="preserve">
<g>
	<g>
		<g>
			<path d="M427.363,125.781c0-1.045-0.522-1.567-1.045-2.612c-0.302-0.268-0.489-0.642-0.522-1.045
				c0-0.522-0.522-0.522-0.522-1.045c0-0.289-0.234-0.522-0.522-0.522l-1.567-2.09l-2.09-1.567h-0.522L218.384,23.381
				c-2.688-1.049-5.672-1.049-8.359,0L7.837,116.377H7.314l-2.09,1.567l-1.567,2.09c-0.289,0-0.522,0.234-0.522,0.522
				c0,0.522-0.522,0.522-0.522,1.045c-0.033,0.403-0.22,0.777-0.522,1.045c-0.522,1.045-1.045,1.567-1.045,2.612H0v178.155
				c0.286,4.173,2.92,7.82,6.792,9.404l202.71,92.996h8.882l203.233-92.996c3.872-1.584,6.506-5.231,6.792-9.404V125.781H427.363z
				 M203.755,380.214L20.898,296.622V142.5l182.857,83.592V380.214z M214.204,207.806l-177.11-82.024l177.11-81.502l177.11,81.502
				L214.204,207.806z M407.51,296.622l-182.857,83.592V226.091L407.51,142.5V296.622z"/>
			<path d="M207.412,112.72c21.42,0,38.139-11.494,38.139-27.167s-16.718-26.645-38.139-26.645
				c-21.42,0-38.661,11.494-38.661,26.645C168.751,100.704,185.469,112.72,207.412,112.72z M207.412,79.806
				c10.449,0,16.718,4.18,17.241,5.747c0.522,1.567-6.792,6.269-17.241,6.269c-10.449,0-17.241-4.702-17.763-6.269
				C194.582,81.373,200.965,79.308,207.412,79.806z"/>
			<path d="M296.229,100.704c-21.943,0-38.661,11.494-38.661,26.645c0,15.151,16.718,27.167,38.661,27.167
				c21.943,0,38.139-11.494,38.139-27.167C334.367,111.675,317.649,100.704,296.229,100.704z M296.229,133.618
				c-10.971,0-17.241-4.702-17.763-6.269c4.934-4.18,11.316-6.245,17.763-5.747c10.449,0,16.718,4.18,17.241,5.747
				C313.992,128.916,306.678,133.618,296.229,133.618z"/>
			<path d="M123.82,95.479c-21.943,0-38.661,11.494-38.661,26.645c0,15.151,16.718,27.167,38.661,27.167
				s38.139-11.494,38.139-27.167C161.959,106.451,145.241,95.479,123.82,95.479z M123.82,128.393
				c-10.971,0-17.241-4.702-17.763-6.269c4.933-4.18,11.316-6.245,17.763-5.747c10.449,0,16.718,4.18,17.241,5.747
				C141.584,123.691,134.269,128.393,123.82,128.393z"/>
			<path d="M212.637,137.275c-21.943,0-38.661,11.494-38.661,26.645s16.718,27.167,38.661,27.167
				c21.943,0,38.139-11.494,38.139-27.167S234.057,137.275,212.637,137.275z M212.637,170.189c-10.971,0-17.241-4.702-17.763-6.269
				c4.933-4.18,11.316-6.245,17.763-5.747c10.449,0,16.718,4.18,17.241,5.747S223.086,170.189,212.637,170.189z"/>
		</g>
	</g>
</g>
<g>
</g>
<g>
</g>
<g>
</g>
<g>
</g>
<g>
</g>
<g>
</g>
<g>
</g>
<g>
</g>
<g>
</g>
<g>
</g>
<g>
</g>
<g>
</g>
<g>
</g>
<g>
</g>
<g>
</g>
</svg>
