<?xml version="1.0" encoding="iso-8859-1"?>
<!-- Generator: Adobe Illustrator 19.0.0, SVG Export Plug-In . SVG Version: 6.00 Build 0)  -->
<svg version="1.1" id="Capa_1" xmlns="http://www.w3.org/2000/svg" xmlns:xlink="http://www.w3.org/1999/xlink" x="0px" y="0px"
	 viewBox="0 0 438.857 438.857" style="enable-background:new 0 0 438.857 438.857;" xml:space="preserve">
<g>
	<g>
		<g>
			<path d="M386.612,0H52.245C26.276,0,5.224,21.052,5.224,47.02v344.816c0,25.969,21.052,47.02,47.02,47.02h334.367
				c25.969,0,47.02-21.052,47.02-47.02V47.02C433.633,21.052,412.581,0,386.612,0z M412.735,391.837
				c0,14.427-11.695,26.122-26.122,26.122H52.245c-14.427,0-26.122-11.695-26.122-26.122V47.02
				c0-14.427,11.695-26.122,26.122-26.122h334.367c14.427,0,26.122,11.695,26.122,26.122V391.837z"/>
			<path d="M370.939,52.245H67.918c-5.771,0-10.449,4.678-10.449,10.449v130.612c0,5.771,4.678,10.449,10.449,10.449h303.02
				c5.771,0,10.449-4.678,10.449-10.449V62.694C381.388,56.923,376.71,52.245,370.939,52.245z M360.49,182.857H78.367V73.143H360.49
				V182.857z"/>
			<path d="M370.939,235.102H245.551c-5.771,0-10.449,4.678-10.449,10.449v130.612c0,5.771,4.678,10.449,10.449,10.449h125.388
				c5.771,0,10.449-4.678,10.449-10.449V245.551C381.388,239.78,376.71,235.102,370.939,235.102z M360.49,365.714H256V256h104.49
				V365.714z"/>
			<path d="M193.306,235.102H67.918c-5.771,0-10.449,4.678-10.449,10.449v130.612c0,5.771,4.678,10.449,10.449,10.449h125.388
				c5.771,0,10.449-4.678,10.449-10.449V245.551C203.755,239.78,199.077,235.102,193.306,235.102z M182.857,365.714H78.367V256
				h104.49V365.714z"/>
		</g>
	</g>
</g>
<g>
</g>
<g>
</g>
<g>
</g>
<g>
</g>
<g>
</g>
<g>
</g>
<g>
</g>
<g>
</g>
<g>
</g>
<g>
</g>
<g>
</g>
<g>
</g>
<g>
</g>
<g>
</g>
<g>
</g>
</svg>
