<?xml version="1.0" encoding="iso-8859-1"?>
<!-- Generator: Adobe Illustrator 19.0.0, SVG Export Plug-In . SVG Version: 6.00 Build 0)  -->
<svg version="1.1" id="Capa_1" xmlns="http://www.w3.org/2000/svg" xmlns:xlink="http://www.w3.org/1999/xlink" x="0px" y="0px"
	 viewBox="0 0 438.857 438.857" style="enable-background:new 0 0 438.857 438.857;" xml:space="preserve">
<g>
	<g>
		<g>
			<path d="M391.837,5.224H47.02C21.052,5.224,0,26.276,0,52.245v334.367c0,25.969,21.052,47.02,47.02,47.02h344.816
				c25.969,0,47.02-21.052,47.02-47.02V52.245C438.857,26.276,417.805,5.224,391.837,5.224z M417.959,386.612
				c0,14.427-11.695,26.122-26.122,26.122H47.02c-14.427,0-26.122-11.695-26.122-26.122V52.245
				c0-14.427,11.695-26.122,26.122-26.122h344.816c14.427,0,26.122,11.695,26.122,26.122V386.612z"/>
			<path d="M193.306,57.469H62.694c-5.771,0-10.449,4.678-10.449,10.449v303.02c0,5.771,4.678,10.449,10.449,10.449h130.612
				c5.771,0,10.449-4.678,10.449-10.449V67.918C203.755,62.148,199.077,57.469,193.306,57.469z M182.857,360.49H73.143V78.367
				h109.714V360.49z"/>
			<path d="M376.163,57.469H245.551c-5.771,0-10.449,4.678-10.449,10.449v303.02c0,5.771,4.678,10.449,10.449,10.449h130.612
				c5.771,0,10.449-4.678,10.449-10.449V67.918C386.612,62.148,381.934,57.469,376.163,57.469z M365.714,360.49H256V78.367h109.714
				V360.49z"/>
		</g>
	</g>
</g>
<g>
</g>
<g>
</g>
<g>
</g>
<g>
</g>
<g>
</g>
<g>
</g>
<g>
</g>
<g>
</g>
<g>
</g>
<g>
</g>
<g>
</g>
<g>
</g>
<g>
</g>
<g>
</g>
<g>
</g>
</svg>
