<?xml version="1.0" encoding="iso-8859-1"?>
<!-- Generator: Adobe Illustrator 19.0.0, SVG Export Plug-In . SVG Version: 6.00 Build 0)  -->
<svg version="1.1" id="Capa_1" xmlns="http://www.w3.org/2000/svg" xmlns:xlink="http://www.w3.org/1999/xlink" x="0px" y="0px"
	 viewBox="0 0 491.12 491.12" style="enable-background:new 0 0 491.12 491.12;" xml:space="preserve">
<g>
	<g>
		<g>
			<path d="M412.744,88.826H78.377c-5.771,0-10.449,4.678-10.449,10.449v214.204c0,5.771,4.678,10.449,10.449,10.449h334.367
				c5.771,0,10.449-4.678,10.449-10.449V99.275C423.193,93.504,418.515,88.826,412.744,88.826z M402.295,303.03H88.825V109.724
				h313.469V303.03z"/>
			<path d="M491.111,381.92v-18.808c0-5.747-3.135-7.837-9.404-7.837h-11.494V88.303c0.002-22.795-18.475-41.275-41.27-41.277
				c-0.175,0-0.351,0.001-0.526,0.003H62.703C39.91,46.741,21.199,64.985,20.91,87.778c-0.002,0.175-0.003,0.351-0.003,0.526
				v266.971H9.413c-6.269,0-9.404,2.09-9.404,7.837v18.808c-0.578,33.754,26.316,61.586,60.07,62.165
				c0.526,0.009,1.052,0.011,1.579,0.007h367.804c33.758,0.294,61.362-26.835,61.656-60.593
				C491.122,382.972,491.12,382.446,491.111,381.92z M41.805,88.303c-0.004-11.253,9.116-20.379,20.369-20.382
				c0.176,0,0.353,0.002,0.529,0.007h365.714c11.249-0.289,20.603,8.597,20.891,19.846c0.005,0.176,0.007,0.353,0.007,0.529v266.971
				H41.805V88.303z M431.047,423.183c-0.528,0.014-1.056,0.017-1.585,0.01H61.658c-22.216,0.296-40.465-17.473-40.761-39.689
				c-0.007-0.528-0.004-1.056,0.01-1.585v-5.747h449.306v5.747C470.792,404.13,453.257,422.604,431.047,423.183z"/>
		</g>
	</g>
</g>
<g>
</g>
<g>
</g>
<g>
</g>
<g>
</g>
<g>
</g>
<g>
</g>
<g>
</g>
<g>
</g>
<g>
</g>
<g>
</g>
<g>
</g>
<g>
</g>
<g>
</g>
<g>
</g>
<g>
</g>
</svg>
