<?xml version="1.0" encoding="iso-8859-1"?>
<!-- Generator: Adobe Illustrator 19.0.0, SVG Export Plug-In . SVG Version: 6.00 Build 0)  -->
<svg version="1.1" id="Capa_1" xmlns="http://www.w3.org/2000/svg" xmlns:xlink="http://www.w3.org/1999/xlink" x="0px" y="0px"
	 viewBox="0 0 488.102 488.102" style="enable-background:new 0 0 488.102 488.102;" xml:space="preserve">
<g>
	<g>
		<g>
			<path d="M167.801,186.581h152.555c2.976-0.204,5.769-1.508,7.837-3.657c2.266-2.377,3.406-5.609,3.135-8.882l-8.882-54.335
				V45.519c-0.792-6.018-5.947-10.501-12.016-10.449H177.727c-6.07-0.052-11.225,4.431-12.016,10.449v74.188l-8.882,54.335
				c-0.413,3.196,0.535,6.418,2.612,8.882C161.723,185.07,164.676,186.362,167.801,186.581z M254.527,165.683h-20.898v-5.224h20.898
				V165.683z M186.609,55.968h114.939v52.245H186.609V55.968z M186.609,129.111h114.939l6.269,36.571h-32.392v-15.673
				c0-5.771-4.678-10.449-10.449-10.449H223.18c-5.771,0-10.449,4.678-10.449,10.449v15.673H180.34L186.609,129.111z"/>
			<path d="M488.062,435.266l-8.882-54.335v-74.188c-0.792-6.018-5.947-10.501-12.016-10.449H334.462
				c-6.07-0.052-11.225,4.431-12.016,10.449v74.188l-8.882,54.335c-0.413,3.196,0.535,6.418,2.612,8.882
				c2.281,2.146,5.234,3.438,8.359,3.657h152.555c2.976-0.204,5.769-1.508,7.837-3.657
				C487.193,441.771,488.334,438.539,488.062,435.266z M343.344,317.193h114.939v52.245H343.344V317.193z M411.262,426.907h-20.898
				v-5.224h20.898V426.907z M432.16,426.907v-15.673c0-5.771-4.678-10.449-10.449-10.449h-41.796
				c-5.771,0-10.449,4.678-10.449,10.449v15.673h-32.392l6.269-36.571h114.939l6.269,36.571H432.16z"/>
			<path d="M165.711,380.932v-74.188c-0.792-6.018-5.947-10.501-12.016-10.449H20.993c-6.07-0.052-11.225,4.431-12.016,10.449
				v74.188l-8.882,54.335c-0.413,3.196,0.535,6.418,2.612,8.882c2.281,2.146,5.234,3.438,8.359,3.657h152.555
				c2.976-0.204,5.769-1.508,7.837-3.657c2.266-2.377,3.406-5.609,3.135-8.882L165.711,380.932z M29.874,317.193h114.939v52.245
				H29.874V317.193z M97.793,426.907H76.895v-5.224h20.898V426.907z M118.691,426.907v-15.673c0-5.771-4.678-10.449-10.449-10.449
				H66.446c-5.771,0-10.449,4.678-10.449,10.449v15.673H23.605l6.269-36.571h114.939l6.269,36.571H118.691z"/>
			<path d="M74.283,283.234c5.771,0,10.449-4.678,10.449-10.449c-0.033-48.336,21.875-94.074,59.559-124.343
				c4.134-4.027,4.22-10.642,0.193-14.776c-3.503-3.596-9.069-4.192-13.254-1.42c-42.667,34.161-67.47,85.881-67.396,140.539
				C63.834,278.556,68.512,283.234,74.283,283.234z"/>
			<path d="M295.001,423.682c-0.082,0.029-0.164,0.059-0.245,0.09c-32.719,10.952-68.114,10.952-100.833,0
				c-5.48-1.708-11.312,1.325-13.061,6.792c-1.985,5.11,0.549,10.862,5.659,12.847c0.201,0.078,0.404,0.15,0.61,0.214
				c37.108,12.541,77.309,12.541,114.416,0c5.538-1.976,8.534-7.967,6.792-13.584C306.413,424.602,300.441,421.755,295.001,423.682z
				"/>
			<path d="M336.029,142.695c42.319,29.793,67.468,78.336,67.396,130.09c0,5.771,4.678,10.449,10.449,10.449
				s10.449-4.678,10.449-10.449c-0.145-58.546-28.554-113.418-76.278-147.331c-4.761-3.318-11.31-2.149-14.629,2.612
				C330.099,132.827,331.268,139.377,336.029,142.695z"/>
		</g>
	</g>
</g>
<g>
</g>
<g>
</g>
<g>
</g>
<g>
</g>
<g>
</g>
<g>
</g>
<g>
</g>
<g>
</g>
<g>
</g>
<g>
</g>
<g>
</g>
<g>
</g>
<g>
</g>
<g>
</g>
<g>
</g>
</svg>
