<?xml version="1.0" encoding="iso-8859-1"?>
<!-- Generator: Adobe Illustrator 19.0.0, SVG Export Plug-In . SVG Version: 6.00 Build 0)  -->
<svg version="1.1" id="Capa_1" xmlns="http://www.w3.org/2000/svg" xmlns:xlink="http://www.w3.org/1999/xlink" x="0px" y="0px"
	 viewBox="0 0 428.1 428.1" style="enable-background:new 0 0 428.1 428.1;" xml:space="preserve">
<g>
	<g>
		<path d="M365.55,104.4h-303c-26,0-47,21.1-47,47v229.7c0,26,21.1,47,47,47h303c26,0,47-21.1,47-47V151.4
			C412.55,125.4,391.45,104.4,365.55,104.4z M36.35,154c0.1-14.6,11-28.7,25.7-28.7h304c14.6,0,25.6,14.1,25.6,28.7v92.5L271.45,317
			c-11.4,6.9-26,5.6-36-3.1l-59.6-52.2c-18.3-16-45.3-17.1-64.8-2.6l-74.7,54.3V154z M391.75,378.6c-0.1,14.7-11,28.8-25.7,28.8
			h-304c-14.6,0-25.6-14.1-25.6-28.7v-39.2l87.2-63.7c11.8-8.5,27.9-7.6,38.7,2.1l59.6,51.7c16.8,14.5,40.9,16.8,60.1,5.7
			l109.7-64.8V378.6z"/>
	</g>
</g>
<g>
	<g>
		<path d="M250.65,162.9c-25.7,0-46.5,20.8-46.5,46.5s20.8,46.5,46.5,46.5s46.5-20.8,46.5-46.5S276.35,162.9,250.65,162.9z
			 M250.65,235c-14.1,0-25.6-11.5-25.6-25.6s11.4-25.6,25.6-25.6c14.1,0,25.6,11.5,25.6,25.6S264.75,235,250.65,235z"/>
	</g>
</g>
<g>
	<g>
		<path d="M376.55,52.2h-325c-5.8,0-10.4,4.7-10.4,10.4c0,5.8,4.6,10.4,10.4,10.4h325c5.8,0,10.4-4.7,10.4-10.4
			C386.95,56.8,382.25,52.2,376.55,52.2z"/>
	</g>
</g>
<g>
	<g>
		<path d="M350.35,0H77.65c-5.8,0-10.4,4.7-10.4,10.4s4.7,10.4,10.4,10.4h272.7c5.8,0,10.4-4.7,10.4-10.4S356.05,0,350.35,0z"/>
	</g>
</g>
<g>
</g>
<g>
</g>
<g>
</g>
<g>
</g>
<g>
</g>
<g>
</g>
<g>
</g>
<g>
</g>
<g>
</g>
<g>
</g>
<g>
</g>
<g>
</g>
<g>
</g>
<g>
</g>
<g>
</g>
</svg>
