<?xml version="1.0" encoding="iso-8859-1"?>
<!-- Generator: Adobe Illustrator 19.0.0, SVG Export Plug-In . SVG Version: 6.00 Build 0)  -->
<svg version="1.1" id="Capa_1" xmlns="http://www.w3.org/2000/svg" xmlns:xlink="http://www.w3.org/1999/xlink" x="0px" y="0px"
	 viewBox="0 0 476.435 476.435" style="enable-background:new 0 0 476.435 476.435;" xml:space="preserve">
<g>
	<g>
		<path d="M196.619,296.266h-67.9c-5.8,0-10.4,4.7-10.4,10.4v52.2c0,5.8,4.7,10.4,10.4,10.4h67.9c5.8,0,10.4-4.7,10.4-10.4v-52.2
			C207.019,300.866,202.319,296.266,196.619,296.266z M186.019,351.766h-47v-36.6h47V351.766z"/>
	</g>
</g>
<g>
	<g>
		<path d="M472.819,209.566l-225.6-193.9c-3.8-3.6-9.8-3.6-13.6,0l-229.9,193.8c-3.3,2.8-4.6,7.4-3.1,11.5c1.5,4.2,5.4,7.1,9.9,7.3
			h44.9v194.4c0.3,22.8,19,41,41.8,40.8h282.6c22.5,0.3,41-17.7,41.3-40.2c0-0.2,0-0.4,0-0.5v-194.4h44.9c4.5-0.2,8.4-3.1,9.9-7.3
			C477.219,216.966,476.019,212.466,472.819,209.566z M348.019,442.566h-83.6v-113.9c0-8.9,4.7-16.7,13.6-16.7h52.8
			c9.2,0.3,16.7,7.5,17.2,16.7V442.566z M400.319,422.666c0,11-8.9,19.9-19.8,19.9c-0.2,0-0.4,0-0.5,0h-11v-113.9
			c-0.6-20.7-17.4-37.3-38.1-37.6h-52.8c-20.4,0-34.5,17.2-34.5,37.6v113.9h-146.4c-10.9,0.6-20.3-7.8-20.9-18.8c0-0.4,0-0.7,0-1.1
			v-194.3h324V422.666z M39.219,207.466l201.2-169.8l197.5,169.8H39.219z"/>
	</g>
</g>
<g>
</g>
<g>
</g>
<g>
</g>
<g>
</g>
<g>
</g>
<g>
</g>
<g>
</g>
<g>
</g>
<g>
</g>
<g>
</g>
<g>
</g>
<g>
</g>
<g>
</g>
<g>
</g>
<g>
</g>
</svg>
