<?xml version="1.0" encoding="iso-8859-1"?>
<!-- Generator: Adobe Illustrator 19.0.0, SVG Export Plug-In . SVG Version: 6.00 Build 0)  -->
<svg version="1.1" id="Capa_1" xmlns="http://www.w3.org/2000/svg" xmlns:xlink="http://www.w3.org/1999/xlink" x="0px" y="0px"
	 viewBox="0 0 462.89 462.89" style="enable-background:new 0 0 462.89 462.89;" xml:space="preserve">
<g>
	<g>
		<path d="M349.522,289.959h-15.673c-37.077,1.828-71.135,20.986-91.951,51.722V200.098h14.106
			c34.973-0.272,63.416-28.253,64.261-63.216V68.963c-0.808-5.934-6.036-10.253-12.016-9.927h-24.555V10.449
			C283.693,4.678,279.015,0,273.244,0s-10.449,4.678-10.449,10.449v48.588h-62.694V10.449C200.101,4.678,195.423,0,189.652,0
			c-5.771,0-10.449,4.678-10.449,10.449v48.588h-22.465c-4.905-0.034-8.909,3.915-8.943,8.82c-0.003,0.37,0.018,0.74,0.061,1.107
			v67.918c-0.582,34.331,26.778,62.634,61.109,63.216c0.006,0,0.012,0,0.018,0h12.016v67.396
			c-20.32-32.08-55.057-52.18-92.996-53.812h-15.151c-2.756,0.039-5.385,1.166-7.314,3.135c-2.1,2.055-3.238,4.9-3.135,7.837v15.151
			c2.422,60.628,51.165,109.143,111.804,111.282h6.792v101.355c0,5.771,4.678,10.449,10.449,10.449s10.449-4.678,10.449-10.449
			v-24.555h5.747c60.509-2.893,108.912-51.295,111.804-111.804l1.045-15.151C360.493,294.871,355.581,289.959,349.522,289.959z
			 M219.432,330.188l-3.657,0c-49.985-1.878-90.073-41.966-91.951-91.951v-3.657h3.657c49.985,1.878,90.073,41.966,91.951,91.951
			V330.188z M208.983,179.2c-22.788-0.57-40.799-19.504-40.229-42.292c0-0.009,0-0.018,0.001-0.026V79.935h130.612v56.947
			c-0.836,23.422-19.928,42.054-43.363,42.318H208.983z M339.073,315.037c-2.368,49.769-42.182,89.583-91.951,91.951h-3.657v-3.657
			c2.368-49.769,42.182-89.583,91.951-91.951h3.657V315.037z"/>
	</g>
</g>
<g>
</g>
<g>
</g>
<g>
</g>
<g>
</g>
<g>
</g>
<g>
</g>
<g>
</g>
<g>
</g>
<g>
</g>
<g>
</g>
<g>
</g>
<g>
</g>
<g>
</g>
<g>
</g>
<g>
</g>
</svg>
