<?xml version="1.0" encoding="iso-8859-1"?>
<!-- Generator: Adobe Illustrator 19.0.0, SVG Export Plug-In . SVG Version: 6.00 Build 0)  -->
<svg version="1.1" id="Capa_1" xmlns="http://www.w3.org/2000/svg" xmlns:xlink="http://www.w3.org/1999/xlink" x="0px" y="0px"
	 viewBox="0 0 476.811 476.811" style="enable-background:new 0 0 476.811 476.811;" xml:space="preserve">
<g>
	<g>
		<path d="M476.546,98.981c-2.304-21.518-19.302-38.517-40.82-40.82c-21.419,0.326-39.702,15.563-43.886,36.571H287.35V58.161
			h-94.041v36.571H88.82c-4.183-21.009-22.467-36.245-43.886-36.571c-24.814,0-44.931,20.116-44.931,44.931
			c-0.298,25.283,19.661,46.17,44.931,47.02c21.42,0,39.184-18.808,43.886-34.482h95.086
			c-43.886,20.898-74.188,62.694-74.188,112.327v96.653H78.371v94.041h94.041V324.61h-41.796v-96.653
			c0-41.273,26.122-78.367,62.694-96.131v20.375h94.041v-20.898c36.571,17.763,57.469,54.335,57.469,96.131v97.176h-36.571v94.041
			h94.041V324.61h-36.571v-97.176c1.046-47.454-25.704-91.152-68.441-111.804h94.563c4.702,15.673,22.465,33.959,43.886,33.959
			C460.973,146.886,479.249,124.228,476.546,98.981z M44.934,127.646c-13.85,0-25.078-11.228-25.078-25.078
			c0-13.85,11.228-25.078,25.078-25.078c13.85,0,25.078,11.228,25.078,25.078C70.011,116.419,58.784,127.646,44.934,127.646z
			 M151.513,345.508v52.245H99.269v-52.245H151.513z M266.452,131.303h-52.245V79.059h52.245V131.303z M381.391,345.508v52.245
			h-52.245v-52.245H381.391z M435.726,127.646c-13.838,0.577-25.524-10.173-26.101-24.011
			c-0.577-13.838,10.173-25.524,24.011-26.101c13.838-0.577,25.524,10.173,26.101,24.011c0.014,0.341,0.021,0.682,0.022,1.023
			C459.77,116.021,449.166,127.086,435.726,127.646z"/>
	</g>
</g>
<g>
</g>
<g>
</g>
<g>
</g>
<g>
</g>
<g>
</g>
<g>
</g>
<g>
</g>
<g>
</g>
<g>
</g>
<g>
</g>
<g>
</g>
<g>
</g>
<g>
</g>
<g>
</g>
<g>
</g>
</svg>
