<?xml version="1.0" encoding="iso-8859-1"?>
<!-- Generator: Adobe Illustrator 19.0.0, SVG Export Plug-In . SVG Version: 6.00 Build 0)  -->
<svg version="1.1" id="Capa_1" xmlns="http://www.w3.org/2000/svg" xmlns:xlink="http://www.w3.org/1999/xlink" x="0px" y="0px"
	 viewBox="0 0 470.204 470.204" style="enable-background:new 0 0 470.204 470.204;" xml:space="preserve">
<g>
	<g>
		<g>
			<path d="M130.09,306.742c-1.389-3.951-5.223-6.507-9.404-6.269H30.825c-4.008-0.16-7.718,2.107-9.404,5.747L1.567,346.448
				C0.582,347.821,0.035,349.46,0,351.15v45.976c0,5.747,5.224,13.061,10.971,13.061h129.045c6.38-1.191,11.123-6.582,11.494-13.061
				v-41.796c0-1.567-1.045-2.612-1.567-4.18L130.09,306.742z M130.612,389.289H20.898v-35.527l16.718-32.392h76.278l16.718,36.049
				V389.289z"/>
			<rect x="31.347" y="347.493" width="20.898" height="26.122"/>
			<rect x="99.265" y="347.493" width="20.898" height="26.122"/>
			<rect x="62.694" y="347.493" width="20.898" height="26.122"/>
			<path d="M289.437,306.219c-1.686-3.64-5.396-5.907-9.404-5.747h-89.861c-4.008-0.16-7.718,2.107-9.404,5.747l-18.808,40.229
				c-0.263,1.556-0.263,3.146,0,4.702v45.976c0,5.747,2.612,13.061,8.359,13.061h129.567c5.747,0,8.359-7.314,8.359-13.061v-41.796
				c0.255-1.381,0.255-2.798,0-4.18L289.437,306.219z M287.347,389.289h-104.49v-35.527l14.106-32.392h76.278l14.106,36.049V389.289
				z"/>
			<rect x="193.306" y="347.493" width="20.898" height="26.122"/>
			<rect x="256" y="347.493" width="20.898" height="26.122"/>
			<rect x="224.653" y="347.493" width="20.898" height="26.122"/>
			<path d="M469.159,351.15l-19.853-44.931c-1.964-3.63-5.8-5.851-9.927-5.747h-89.861c-4.008-0.16-7.718,2.107-9.404,5.747
				l-19.853,40.751c-0.833,1.256-1.369,2.685-1.567,4.18v45.976c0.37,6.479,5.114,11.87,11.494,13.061h129.045
				c5.747,0,10.971-7.314,10.971-13.061v-41.796C470.166,353.876,469.809,352.45,469.159,351.15z M449.306,389.289H339.592v-35.527
				l16.718-32.392h76.278l16.718,36.049V389.289z"/>
			<rect x="350.041" y="347.493" width="20.898" height="26.122"/>
			<rect x="417.959" y="347.493" width="20.898" height="26.122"/>
			<rect x="381.388" y="347.493" width="20.898" height="26.122"/>
			<path d="M105.535,284.799H234.58c5.747,0,10.971-3.135,10.971-8.882v-41.796c-0.105-1.443-0.458-2.857-1.045-4.18l-19.331-43.886
				c-1.868-3.723-5.768-5.981-9.927-5.747h-89.861c-3.92-0.401-7.673,1.685-9.404,5.224l-20.376,40.751
				c-0.522,1.567-1.567,2.612-1.567,4.18v45.453C94.041,281.664,99.788,284.799,105.535,284.799z M114.939,233.076l17.241-31.869
				h76.278l16.196,35.004v27.69H114.939V233.076z"/>
			<rect x="125.388" y="227.329" width="20.898" height="26.122"/>
			<rect x="193.306" y="227.329" width="20.898" height="26.122"/>
			<rect x="161.959" y="227.329" width="20.898" height="26.122"/>
			<path d="M272.718,185.533l-20.376,40.751c-0.522,1.567-1.567,2.612-1.567,4.18v45.453c0,5.747,5.747,8.882,11.494,8.882h129.045
				c5.747,0,10.971-3.135,10.971-8.882v-41.796c-0.105-1.443-0.458-2.857-1.045-4.18l-19.331-43.886
				c-1.868-3.723-5.768-5.981-9.927-5.747h-89.861C278.203,179.908,274.449,181.994,272.718,185.533z M365.192,201.207
				l16.196,35.004v27.69H271.673v-30.824l17.241-31.869H365.192z"/>
			<rect x="282.122" y="227.329" width="20.898" height="26.122"/>
			<rect x="350.041" y="227.329" width="20.898" height="26.122"/>
			<rect x="318.694" y="227.329" width="20.898" height="26.122"/>
			<path d="M161.959,154.709c0,5.747,2.612,9.927,8.359,9.927h129.567c5.747,0,8.359-4.18,8.359-9.927v-41.273
				c0.255-1.382,0.255-2.798,0-4.18l-19.331-44.408c-1.583-3.371-5.204-5.288-8.882-4.702h-89.861
				c-3.825-0.656-7.633,1.248-9.404,4.702l-18.808,40.751c-0.522,1.045,0,2.09,0,3.657V154.709z M182.857,111.868l14.106-30.824
				h76.278l14.106,34.482v28.212h-104.49V111.868z"/>
			<rect x="193.306" y="101.942" width="20.898" height="31.347"/>
			<rect x="256" y="101.942" width="20.898" height="31.347"/>
			<rect x="224.653" y="101.942" width="20.898" height="31.347"/>
		</g>
	</g>
</g>
<g>
</g>
<g>
</g>
<g>
</g>
<g>
</g>
<g>
</g>
<g>
</g>
<g>
</g>
<g>
</g>
<g>
</g>
<g>
</g>
<g>
</g>
<g>
</g>
<g>
</g>
<g>
</g>
<g>
</g>
</svg>
