<?xml version="1.0" encoding="iso-8859-1"?>
<!-- Generator: Adobe Illustrator 19.0.0, SVG Export Plug-In . SVG Version: 6.00 Build 0)  -->
<svg version="1.1" id="Capa_1" xmlns="http://www.w3.org/2000/svg" xmlns:xlink="http://www.w3.org/1999/xlink" x="0px" y="0px"
	 viewBox="0 0 428.408 428.408" style="enable-background:new 0 0 428.408 428.408;" xml:space="preserve">
<g>
	<g>
		<path d="M295.706,0H132.702c-6.272,0.171-11.537,4.777-12.539,10.971v190.694c0,47.02,37.616,86.204,83.592,91.429V407.51h-39.184
			c-5.771,0-10.449,4.678-10.449,10.449c0,5.771,4.678,10.449,10.449,10.449h99.265c5.771,0,10.449-4.678,10.449-10.449
			c0-5.771-4.678-10.449-10.449-10.449h-39.184V293.094c45.976-5.224,83.592-44.408,83.592-91.429V10.971
			C307.243,4.777,301.978,0.171,295.706,0z M213.159,272.718c-39.414,0.004-71.527-31.643-72.098-71.053V181.29
			c4.114,1.89,7.702,4.76,10.449,8.359c7.314,7.837,16.718,17.241,35.004,17.241c18.286,0,27.69-9.404,35.004-17.241
			c7.314-7.837,10.971-10.971,19.853-10.971s12.539,3.657,19.331,10.971c6.792,7.314,12.539,13.061,24.033,15.673
			C282.267,243.093,251.01,272.525,213.159,272.718z M287.347,183.38c-4.114-1.89-7.702-4.76-10.449-8.359
			c-7.314-7.837-16.718-17.241-35.004-17.241c-18.286,0-27.69,9.404-35.004,17.241c-7.314,7.837-10.971,10.971-19.853,10.971
			s-13.584-3.657-20.375-10.971c-6.792-7.314-9.927-13.061-25.6-16.196V20.898h146.286V183.38z"/>
	</g>
</g>
<g>
</g>
<g>
</g>
<g>
</g>
<g>
</g>
<g>
</g>
<g>
</g>
<g>
</g>
<g>
</g>
<g>
</g>
<g>
</g>
<g>
</g>
<g>
</g>
<g>
</g>
<g>
</g>
<g>
</g>
</svg>
