<?xml version="1.0" encoding="iso-8859-1"?>
<!-- Generator: Adobe Illustrator 19.0.0, SVG Export Plug-In . SVG Version: 6.00 Build 0)  -->
<svg version="1.1" id="Capa_1" xmlns="http://www.w3.org/2000/svg" xmlns:xlink="http://www.w3.org/1999/xlink" x="0px" y="0px"
	 viewBox="0 0 370.994 370.994" style="enable-background:new 0 0 370.994 370.994;" xml:space="preserve">
<g>
	<g>
		<g>
			<path d="M10.449,140.594c5.771,0,10.449-4.678,10.449-10.449V44.463c0-14.629,14.106-23.51,28.735-23.51h85.682
				c5.771,0,10.449-4.678,10.449-10.449s-4.678-10.449-10.449-10.449H49.633C23.51,0.055,0,18.341,0,44.463v85.682
				C0,135.915,4.678,140.594,10.449,140.594z"/>
			<path d="M330.819,0.055c-1.429-0.073-2.86-0.073-4.288,0h-85.682c-5.771,0-10.449,4.678-10.449,10.449
				s4.678,10.449,10.449,10.449h85.682c12.085-0.899,22.611,8.169,23.51,20.255c0.081,1.084,0.081,2.172,0,3.256v85.682
				c0,5.771,4.678,10.449,10.449,10.449s10.449-4.678,10.449-10.449V44.463C372.123,21.121,354.161,1.239,330.819,0.055z"/>
			<path d="M360.49,225.23c-5.771,0-10.449,4.678-10.449,10.449v85.682c0,14.629-8.882,28.735-23.51,28.735h-85.682
				c-5.771,0-10.449,4.678-10.449,10.449s4.678,10.449,10.449,10.449h85.682c26.122,0,44.408-23.51,44.408-49.633v-85.682
				C370.939,229.909,366.261,225.23,360.49,225.23z"/>
			<path d="M135.314,350.096H49.633c-15.533-0.785-27.95-13.202-28.735-28.735v-85.682c0-5.771-4.678-10.449-10.449-10.449
				S0,229.909,0,235.679v85.682c0.817,27.066,22.567,48.816,49.633,49.633h85.682c5.771,0,10.449-4.678,10.449-10.449
				S141.085,350.096,135.314,350.096z"/>
			<path d="M258.612,182.912c0-38.953-31.578-70.531-70.531-70.531s-70.531,31.578-70.531,70.531s31.578,70.531,70.531,70.531
				C226.916,253.158,258.328,221.747,258.612,182.912z M188.082,232.545c-27.411,0-49.633-22.221-49.633-49.633
				c0-27.411,22.221-49.633,49.633-49.633c27.411,0,49.633,22.221,49.633,49.633C237.431,210.205,215.375,232.262,188.082,232.545z"
				/>
		</g>
	</g>
</g>
<g>
</g>
<g>
</g>
<g>
</g>
<g>
</g>
<g>
</g>
<g>
</g>
<g>
</g>
<g>
</g>
<g>
</g>
<g>
</g>
<g>
</g>
<g>
</g>
<g>
</g>
<g>
</g>
<g>
</g>
</svg>
