<?xml version="1.0" encoding="iso-8859-1"?>
<!-- Generator: Adobe Illustrator 19.0.0, SVG Export Plug-In . SVG Version: 6.00 Build 0)  -->
<svg version="1.1" id="Capa_1" xmlns="http://www.w3.org/2000/svg" xmlns:xlink="http://www.w3.org/1999/xlink" x="0px" y="0px"
	 viewBox="0 0 480.276 480.276" style="enable-background:new 0 0 480.276 480.276;" xml:space="preserve">
<g>
	<g>
		<g>
			<path d="M468.259,211.026c-0.048-0.048-0.097-0.097-0.145-0.145c-32.914-34.482-99.788-91.429-178.678-91.429
				c-45.453,0-94.563,19.853-141.584,57.469c-16.276,12.847-31.478,27-45.453,42.318c-5.625-11.599-12.085-22.774-19.331-33.437
				c-23.51-35.004-48.065-52.767-72.62-52.767C4.678,133.036,0,137.714,0,143.485v193.306c0,5.771,4.678,10.449,10.449,10.449
				c24.555,0,49.11-17.763,72.62-52.767c7.245-10.662,13.706-21.837,19.331-33.437c13.975,15.318,29.177,29.471,45.453,42.318
				c47.02,37.616,96.131,57.469,141.584,57.469c78.89,0,145.763-56.947,178.678-91.429
				C484.273,253.317,484.337,227.184,468.259,211.026z M87.771,242.75c-11.494,25.078-35.526,72.098-66.873,82.024V155.501
				c31.347,9.927,55.38,56.947,67.396,82.024C87.862,239.232,87.686,240.992,87.771,242.75z M289.437,339.926
				c-84.637,0-157.78-76.8-177.633-99.788c19.853-22.988,92.996-99.788,177.633-99.788c29.71,0.801,58.77,8.874,84.637,23.51
				c-23.51,12.539-40.229,42.318-40.229,76.278s16.718,63.739,40.229,76.278C348.207,331.052,319.147,339.124,289.437,339.926z
				 M453.486,255.289c-16.979,17.182-35.519,32.748-55.38,46.498c-24.033-1.567-43.363-28.735-43.363-61.649
				c0-32.914,19.331-60.082,43.363-61.649c19.861,13.75,38.401,29.316,55.38,46.498
				C461.323,233.567,461.323,246.708,453.486,255.289z"/>
			<path d="M400.718,202.521c-15.293,0-27.69,12.397-27.69,27.69s12.397,27.69,27.69,27.69s27.69-12.397,27.69-27.69
				C428.408,214.919,416.011,202.521,400.718,202.521z M400.718,237.003L400.718,237.003c-3.751,0-6.792-3.041-6.792-6.792
				s3.041-6.792,6.792-6.792c3.751,0,6.792,3.041,6.792,6.792C407.51,233.962,404.469,237.003,400.718,237.003z"/>
		</g>
	</g>
</g>
<g>
</g>
<g>
</g>
<g>
</g>
<g>
</g>
<g>
</g>
<g>
</g>
<g>
</g>
<g>
</g>
<g>
</g>
<g>
</g>
<g>
</g>
<g>
</g>
<g>
</g>
<g>
</g>
<g>
</g>
</svg>
