<?xml version="1.0" encoding="iso-8859-1"?>
<!-- Generator: Adobe Illustrator 19.0.0, SVG Export Plug-In . SVG Version: 6.00 Build 0)  -->
<svg version="1.1" id="Capa_1" xmlns="http://www.w3.org/2000/svg" xmlns:xlink="http://www.w3.org/1999/xlink" x="0px" y="0px"
	 viewBox="0 0 424.751 424.751" style="enable-background:new 0 0 424.751 424.751;" xml:space="preserve">
<g>
	<g>
		<g>
			<path d="M211.335,286.82c32.315,0.287,58.745-25.677,59.032-57.992c0.003-0.347,0.003-0.693,0-1.04
				c0-32.028-25.964-57.992-57.992-57.992c-32.315-0.287-58.745,25.677-59.032,57.992
				C153.056,260.103,179.02,286.533,211.335,286.82z M211.331,190.179c20.773-0.289,37.847,16.317,38.135,37.09
				c0.002,0.173,0.004,0.346,0.004,0.519c0.289,20.484-16.083,37.324-36.568,37.613c-0.175,0.002-0.351,0.004-0.526,0.004
				c-20.773,0.289-37.847-16.317-38.135-37.09C173.952,207.541,190.558,190.467,211.331,190.179z"/>
			<path d="M212.388,255.987c15.571-0.007,28.193-12.628,28.2-28.2c0-15.581-12.631-28.212-28.212-28.212
				s-28.212,12.631-28.212,28.212C184.17,243.369,196.807,255.994,212.388,255.987z M205.061,227.788
				c0.003-4.04,3.28-7.312,7.319-7.309c4.036,0.003,7.306,3.274,7.309,7.309c0,4.04-3.275,7.314-7.314,7.314
				S205.061,231.827,205.061,227.788L205.061,227.788z"/>
			<path d="M352.392,200.098h-13.061c-3.703-6.327-9.684-10.999-16.718-13.061l-21.42-7.314v-50.155
				c0-36.049-26.122-66.873-57.469-79.412V31.347C243.722,14.034,229.688,0,212.376,0s-31.347,14.034-31.347,31.347v18.808
				c-31.347,12.539-57.469,43.363-57.469,79.412v50.155l-21.42,7.314c-7.035,2.062-13.016,6.734-16.718,13.061H72.359
				c-15.87,0-28.735,12.865-28.735,28.735s12.865,28.735,28.735,28.735H85.42c3.875,6.062,9.814,10.516,16.718,12.539l21.42,6.269
				v135.837c1.103,6.607,6.414,11.706,13.061,12.539h151.51c6.647-0.833,11.958-5.931,13.061-12.539V276.375l21.42-6.269
				c6.905-2.023,12.843-6.477,16.718-12.539h13.061c15.87,0,28.735-12.865,28.735-28.735S368.262,200.098,352.392,200.098z
				 M81.763,236.669h-9.404c-3.135,0-6.269-4.18-6.269-7.837s3.135-7.837,6.269-7.837h9.404V236.669z M123.559,254.433
				l-15.673-5.747h-0.522c-3.132-0.516-5.252-3.473-4.736-6.605c0.01-0.063,0.022-0.125,0.034-0.187v-27.69
				c0.094-3.154,2.2-5.892,5.224-6.792l15.673-5.747V254.433z M201.927,31.347c0-5.771,4.678-10.449,10.449-10.449
				s10.449,4.678,10.449,10.449v13.061l-10.449-1.045l-10.449,1.045V31.347z M280.294,403.853H144.457v-26.122h135.837V403.853z
				 M280.294,356.833h-26.122v-25.078c0-5.771-4.678-10.449-10.449-10.449s-10.449,4.678-10.449,10.449v25.078h-10.449v-25.078
				c0-5.771-4.678-10.449-10.449-10.449s-10.449,4.678-10.449,10.449v25.078h-10.449v-25.078c0-5.771-4.678-10.449-10.449-10.449
				s-10.449,4.678-10.449,10.449v25.078h-26.122V158.302h135.837V356.833z M280.294,137.404H144.457v-7.837
				c0-36.049,31.869-65.306,67.918-65.306s67.918,29.257,67.918,65.306V137.404z M322.09,241.894
				c0.043,3.092-2.175,5.754-5.224,6.269c-0.522,0,0.522,0.522,0,0.522l-15.673,5.747v-52.767l15.673,5.747h0.522
				c2.922,0.941,4.85,3.725,4.702,6.792V241.894z M352.392,236.669h-9.404v-15.673h9.404c3.135,0,6.269,4.18,6.269,7.837
				S355.526,236.669,352.392,236.669z"/>
		</g>
	</g>
</g>
<g>
</g>
<g>
</g>
<g>
</g>
<g>
</g>
<g>
</g>
<g>
</g>
<g>
</g>
<g>
</g>
<g>
</g>
<g>
</g>
<g>
</g>
<g>
</g>
<g>
</g>
<g>
</g>
<g>
</g>
</svg>
