<?xml version="1.0" encoding="iso-8859-1"?>
<!-- Generator: Adobe Illustrator 19.0.0, SVG Export Plug-In . SVG Version: 6.00 Build 0)  -->
<svg version="1.1" id="Capa_1" xmlns="http://www.w3.org/2000/svg" xmlns:xlink="http://www.w3.org/1999/xlink" x="0px" y="0px"
	 viewBox="0 0 428.934 428.934" style="enable-background:new 0 0 428.934 428.934;" xml:space="preserve">
<g>
	<g>
		<g>
			<path d="M423.446,382.433V83.069c0.584-24.808-19.053-45.392-43.861-45.975c-0.705-0.017-1.41-0.017-2.115,0h-53.29V10.449
				C324.181,4.678,319.503,0,313.732,0s-10.449,4.678-10.449,10.449v26.645H125.65V10.449C125.65,4.678,120.972,0,115.201,0
				s-10.449,4.678-10.449,10.449v26.645h-53.29C26.655,36.51,6.071,56.147,5.487,80.955c-0.017,0.705-0.017,1.41,0,2.115v299.363
				c-0.579,25.096,19.297,45.91,44.393,46.489c0.527,0.012,1.055,0.015,1.583,0.009h326.008
				c25.101,0.295,45.689-19.814,45.984-44.915C423.462,383.488,423.459,382.96,423.446,382.433z M49.325,57.992
				c0.712-0.032,1.425-0.032,2.137,0h53.29v26.122c0,5.771,4.678,10.449,10.449,10.449s10.449-4.678,10.449-10.449V57.992h177.633
				v26.122c0,5.771,4.678,10.449,10.449,10.449s10.449-4.678,10.449-10.449V57.992h53.29c13.26-0.59,24.487,9.68,25.078,22.94
				c0.032,0.712,0.032,1.425,0,2.137v42.841H26.385V83.069C25.795,69.81,36.066,58.582,49.325,57.992z M379.067,408.016
				c-0.532,0.023-1.064,0.028-1.596,0.016H51.463c-13.558,0.301-24.793-10.446-25.094-24.004c-0.012-0.532-0.006-1.064,0.016-1.596
				V146.808h376.163v235.625C403.129,395.982,392.616,407.436,379.067,408.016z"/>
			<path d="M106.32,189.649C106.32,189.649,106.32,189.649,106.32,189.649c-22.795,0-41.273,18.479-41.273,41.273
				c0,22.795,18.479,41.273,41.273,41.273c22.795,0,41.273-18.479,41.273-41.273S129.115,189.649,106.32,189.649z M107.379,251.298
				c-0.353,0.009-0.706,0.009-1.059,0c-10.961,0.292-20.083-8.356-20.375-19.316c-0.009-0.353-0.009-0.706,0-1.059
				c0-11.253,9.122-20.376,20.375-20.376c11.253,0,20.376,9.122,20.376,20.376C126.988,241.883,118.34,251.006,107.379,251.298z"/>
			<path d="M214.467,189.649c-22.795,0-41.273,18.479-41.273,41.273c0,22.795,18.479,41.273,41.273,41.273
				s41.273-18.479,41.273-41.273S237.262,189.649,214.467,189.649z M215.526,251.298c-0.353,0.009-0.706,0.009-1.059,0
				c-10.961,0.292-20.083-8.356-20.376-19.316c-0.009-0.353-0.009-0.706,0-1.059c0.006-11.253,9.133-20.371,20.386-20.365
				c11.245,0.006,20.359,9.12,20.365,20.365C235.135,241.883,226.486,251.006,215.526,251.298z"/>
			<path d="M322.614,189.649c-22.795,0-41.273,18.479-41.273,41.273c0,22.795,18.479,41.273,41.273,41.273
				c22.795,0,41.273-18.479,41.273-41.273S345.408,189.649,322.614,189.649z M323.673,251.298c-0.353,0.009-0.706,0.009-1.059,0
				c-10.961,0.292-20.083-8.356-20.375-19.316c-0.009-0.353-0.009-0.706,0-1.059c0-11.253,9.122-20.376,20.375-20.376
				s20.376,9.122,20.376,20.376C343.282,241.883,334.633,251.006,323.673,251.298z"/>
			<path d="M107.372,282.122c-0.351-0.005-0.701-0.005-1.052,0c-22.795,0-41.273,18.479-41.273,41.273s18.479,41.273,41.273,41.273
				c22.795,0,41.273-18.479,41.273-41.273C147.884,300.892,129.876,282.413,107.372,282.122z M126.695,323.396
				c0.004,10.965-8.882,19.856-19.846,19.86c-0.176,0-0.353-0.002-0.529-0.007c-11.253-0.004-20.372-9.129-20.369-20.382
				c0.004-11.253,9.129-20.372,20.382-20.369c11.253,0.004,20.372,9.129,20.369,20.382
				C126.702,323.052,126.7,323.224,126.695,323.396z"/>
			<path d="M215.518,282.122c-0.351-0.005-0.701-0.005-1.052,0c-22.795,0-41.273,18.479-41.273,41.273s18.479,41.273,41.273,41.273
				s41.273-18.479,41.273-41.273C256.031,300.892,238.023,282.413,215.518,282.122z M234.842,323.396
				c0.004,10.965-8.882,19.856-19.846,19.86c-0.177,0-0.353-0.002-0.529-0.007c-11.253-0.004-20.372-9.129-20.369-20.382
				c0.004-11.253,9.129-20.372,20.382-20.369c11.253,0.004,20.372,9.129,20.369,20.382
				C234.849,323.052,234.847,323.224,234.842,323.396z"/>
			<path d="M323.665,282.122c-0.351-0.005-0.701-0.005-1.052,0c-22.795,0-41.273,18.479-41.273,41.273s18.479,41.273,41.273,41.273
				c22.795,0,41.273-18.479,41.273-41.273C364.178,300.892,346.17,282.413,323.665,282.122z M342.989,323.396
				c0.004,10.965-8.882,19.856-19.846,19.86c-0.176,0-0.353-0.002-0.529-0.007c-11.253-0.004-20.372-9.129-20.369-20.382
				c0.004-11.253,9.129-20.372,20.382-20.369c11.253,0.004,20.373,9.129,20.369,20.382
				C342.996,323.052,342.994,323.224,342.989,323.396z"/>
		</g>
	</g>
</g>
<g>
</g>
<g>
</g>
<g>
</g>
<g>
</g>
<g>
</g>
<g>
</g>
<g>
</g>
<g>
</g>
<g>
</g>
<g>
</g>
<g>
</g>
<g>
</g>
<g>
</g>
<g>
</g>
<g>
</g>
</svg>
