<?xml version="1.0" encoding="iso-8859-1"?>
<!-- Generator: Adobe Illustrator 19.0.0, SVG Export Plug-In . SVG Version: 6.00 Build 0)  -->
<svg version="1.1" id="Capa_1" xmlns="http://www.w3.org/2000/svg" xmlns:xlink="http://www.w3.org/1999/xlink" x="0px" y="0px"
	 viewBox="0 0 440.968 440.968" style="enable-background:new 0 0 440.968 440.968;" xml:space="preserve">
<g>
	<g>
		<g>
			<path d="M247.136,0.002C246.961,0.001,246.786,0,246.612,0c-34.625-0.001-62.695,28.067-62.696,62.692
				c0,0.175,0.001,0.35,0.002,0.525v22.465c0,5.771,4.678,10.449,10.449,10.449s10.449-4.678,10.449-10.449V63.216
				c0-23.083,18.713-41.796,41.796-41.796s41.796,18.713,41.796,41.796v41.274l-128.522,82.024
				c-17.959,11.469-28.648,31.463-28.212,52.767v141.061c-0.3,33.181,26.355,60.322,59.536,60.622c0.704,0.006,1.409,0,2.113-0.018
				h54.335c33.171,0.867,60.764-25.32,61.631-58.491c0.018-0.704,0.024-1.408,0.018-2.113V63.216
				C309.594,28.593,281.76,0.291,247.136,0.002z M288.407,367.282v13.061c0.306,21.638-16.987,39.428-38.626,39.734
				c-0.708,0.01-1.417,0.001-2.125-0.028h-54.335c-21.623,0.868-39.856-15.958-40.723-37.581c-0.028-0.708-0.038-1.417-0.028-2.125
				V239.282c-0.326-14.177,6.558-27.553,18.286-35.526l117.551-74.71V367.282z"/>
			<path d="M220.489,364.669c20.775,0,37.616-16.841,37.616-37.616c0-20.775-16.841-37.616-37.616-37.616
				c-20.775,0-37.616,16.841-37.616,37.616S199.714,364.669,220.489,364.669z M220.489,310.335c9.233,0,16.718,7.485,16.718,16.718
				s-7.485,16.718-16.718,16.718s-16.718-7.485-16.718-16.718S211.256,310.335,220.489,310.335z"/>
		</g>
	</g>
</g>
<g>
</g>
<g>
</g>
<g>
</g>
<g>
</g>
<g>
</g>
<g>
</g>
<g>
</g>
<g>
</g>
<g>
</g>
<g>
</g>
<g>
</g>
<g>
</g>
<g>
</g>
<g>
</g>
<g>
</g>
</svg>
