<?xml version="1.0" encoding="iso-8859-1"?>
<!-- Generator: Adobe Illustrator 19.0.0, SVG Export Plug-In . SVG Version: 6.00 Build 0)  -->
<svg version="1.1" id="Capa_1" xmlns="http://www.w3.org/2000/svg" xmlns:xlink="http://www.w3.org/1999/xlink" x="0px" y="0px"
	 viewBox="0 0 365.763 365.763" style="enable-background:new 0 0 365.763 365.763;" xml:space="preserve">
<g>
	<g>
		<g>
			<path d="M330.219,86.228L187.59,76.302v-25.6C187.603,22.713,164.925,0.013,136.937,0c-0.531,0-1.061,0.008-1.592,0.024H58.023
				c-28.735,0-53.29,21.42-53.29,50.678v264.359c0,29.257,24.555,50.677,53.29,50.677h77.322
				c27.975,0.866,51.355-21.111,52.221-49.086c0.016-0.53,0.024-1.061,0.024-1.592V157.804l142.629-9.927
				c17.024-0.007,30.819-13.813,30.812-30.837C361.023,100.026,347.233,86.235,330.219,86.228z M166.692,315.061
				c0.023,16.447-13.292,29.798-29.738,29.821c-0.536,0.001-1.073-0.013-1.609-0.041H58.023c-17.241,0-32.392-12.016-32.392-29.78
				V50.702c0-17.763,15.151-29.78,32.392-29.78h77.322c16.424-0.866,30.44,11.747,31.306,28.171
				c0.028,0.536,0.042,1.072,0.041,1.609v24.033l-41.274-2.612c-8.641-5.346-18.575-8.236-28.735-8.359
				c-29.431,0.012-53.28,23.88-53.268,53.311c0.012,29.414,23.854,53.257,53.268,53.268c10.16-0.123,20.094-3.013,28.735-8.359
				l41.274-3.135V315.061z M89.994,147.979c0.31,0.319,0.624,0.634,0.943,0.943c-15.31-2.969-26.435-16.275-26.645-31.869
				c0.004-15.669,11.224-29.089,26.645-31.869C73.336,102.263,72.914,130.378,89.994,147.979z M328.651,126.979l-204.8,14.106
				c-6.635,0.477-13.14-2.01-17.763-6.792c-4.914-4.394-7.757-10.649-7.837-17.241c0.179-6.72,2.993-13.101,7.837-17.763
				c4.455-3.993,10.214-6.222,16.196-6.269h1.567l204.8,14.106c5.482,0.003,9.924,4.45,9.92,9.933
				C338.568,122.536,334.129,126.976,328.651,126.979z"/>
			<path d="M97.21,211.09c-0.176,0-0.351,0.001-0.527,0.004c-18.755-0.002-33.961,15.2-33.963,33.955
				c0,0.175,0.001,0.351,0.004,0.526c0.167,7.241,2.337,14.294,6.269,20.376l5.747,43.363c0.539,5.359,5.063,9.431,10.449,9.404
				h23.51c5.285,0.007,9.648-4.127,9.927-9.404l5.747-43.363c4.095-6.394,6.271-13.828,6.269-21.42
				C130.645,226.064,115.677,211.092,97.21,211.09z M106.61,254.979c-1.588,1.501-2.526,3.563-2.612,5.747l-4.702,37.094h-5.224
				l-4.702-37.094c-0.086-2.183-1.024-4.246-2.612-5.747c-1.891-2.786-2.976-6.041-3.135-9.404
				c-0.005-7.303,5.764-13.303,13.061-13.584c6.919-0.289,12.762,5.086,13.05,12.005c0.007,0.178,0.011,0.356,0.011,0.533
				C109.755,248.247,108.665,251.883,106.61,254.979z"/>
		</g>
	</g>
</g>
<g>
</g>
<g>
</g>
<g>
</g>
<g>
</g>
<g>
</g>
<g>
</g>
<g>
</g>
<g>
</g>
<g>
</g>
<g>
</g>
<g>
</g>
<g>
</g>
<g>
</g>
<g>
</g>
<g>
</g>
</svg>
