<?xml version="1.0" encoding="iso-8859-1"?>
<!-- Generator: Adobe Illustrator 19.0.0, SVG Export Plug-In . SVG Version: 6.00 Build 0)  -->
<svg version="1.1" id="Capa_1" xmlns="http://www.w3.org/2000/svg" xmlns:xlink="http://www.w3.org/1999/xlink" x="0px" y="0px"
	 viewBox="0 0 407.51 407.51" style="enable-background:new 0 0 407.51 407.51;" xml:space="preserve">
<g>
	<g>
		<g>
			<path d="M240.327,215.249c0-5.747-2.612-11.494-8.359-11.494H124.343c-5.745,0.545-9.96,5.645-9.414,11.39
				c0.003,0.035,0.007,0.069,0.01,0.104v101.878c0,5.747,3.657,12.016,9.404,12.016h107.624c5.747,0,8.359-6.269,8.359-12.016
				v-20.898l37.616,16.196l4.702,1.045c1.863,0.038,3.69-0.51,5.224-1.567c2.982-1.963,4.755-5.312,4.702-8.882v-73.143
				c0.27-3.49-1.318-6.865-4.18-8.882c-3.421-1.711-7.404-1.901-10.971-0.522l-37.094,16.196V215.249z M219.429,308.245h-83.592
				v-83.592h83.592V308.245z M271.673,246.073v40.751l-31.347-13.584v-13.584L271.673,246.073z"/>
			<path d="M362.58,113.371L251.82,3.135c-1.929-1.969-4.558-3.095-7.314-3.135H94.041C65.187,0,41.796,23.391,41.796,52.245v303.02
				c0,28.854,23.391,52.245,52.245,52.245h219.429c28.854,0,52.245-23.391,52.245-52.245v-234.58
				C365.675,117.93,364.548,115.301,362.58,113.371z M256,104.49V36.571l73.665,73.143h-68.441
				c-2.579,0.307-4.918-1.535-5.224-4.114C255.956,105.232,255.956,104.859,256,104.49z M344.816,355.265
				c0,17.312-14.035,31.347-31.347,31.347H94.041c-17.312,0-31.347-14.034-31.347-31.347V52.245
				c0-17.312,14.034-31.347,31.347-31.347h141.061v83.592c0,14.427,11.695,26.122,26.122,26.122h83.592V355.265z"/>
		</g>
	</g>
</g>
<g>
</g>
<g>
</g>
<g>
</g>
<g>
</g>
<g>
</g>
<g>
</g>
<g>
</g>
<g>
</g>
<g>
</g>
<g>
</g>
<g>
</g>
<g>
</g>
<g>
</g>
<g>
</g>
<g>
</g>
</svg>
