<?xml version="1.0" encoding="iso-8859-1"?>
<!-- Generator: Adobe Illustrator 19.0.0, SVG Export Plug-In . SVG Version: 6.00 Build 0)  -->
<svg version="1.1" id="Capa_1" xmlns="http://www.w3.org/2000/svg" xmlns:xlink="http://www.w3.org/1999/xlink" x="0px" y="0px"
	 viewBox="0 0 407.51 407.51" style="enable-background:new 0 0 407.51 407.51;" xml:space="preserve">
<g>
	<g>
		<g>
			<path d="M212.637,206.89c-0.034,3.373,0.496,6.728,1.567,9.927l-31.347,20.898c-5.539-4.296-12.322-6.679-19.331-6.792
				c-17.312,0.014-31.336,14.059-31.322,31.372c0.014,17.293,14.029,31.308,31.322,31.322c6.753-0.172,13.302-2.355,18.808-6.269
				l31.347,20.375c-0.605,2.572-0.955,5.197-1.045,7.837c0,17.312,14.034,31.347,31.347,31.347s31.347-14.034,31.347-31.347
				s-14.034-31.347-31.347-31.347c-6.636-0.085-13.097,2.131-18.286,6.269l-31.869-20.375c0.605-2.572,0.955-5.197,1.045-7.837
				c-0.093-2.468-0.443-4.919-1.045-7.314l33.437-21.42c5.007,3.137,10.81,4.769,16.718,4.702c17.312,0,31.347-14.034,31.347-31.347
				s-14.034-31.347-31.347-31.347S212.637,189.577,212.637,206.89z M163.527,272.718c-5.771,0-10.449-4.678-10.449-10.449
				s4.678-10.449,10.449-10.449s10.449,4.678,10.449,10.449S169.297,272.718,163.527,272.718z M243.984,305.11
				c5.771,0,10.449,4.678,10.449,10.449s-4.678,10.449-10.449,10.449c-5.771,0-10.449-4.678-10.449-10.449
				S238.213,305.11,243.984,305.11z M254.433,206.89c0,5.771-4.678,10.449-10.449,10.449c-5.771,0-10.449-4.678-10.449-10.449
				s4.678-10.449,10.449-10.449C249.754,196.441,254.433,201.119,254.433,206.89z"/>
			<path d="M362.58,113.371L251.82,3.135c-1.929-1.969-4.558-3.095-7.314-3.135H94.041C65.187,0,41.796,23.391,41.796,52.245v303.02
				c0,28.854,23.391,52.245,52.245,52.245h219.429c28.854,0,52.245-23.391,52.245-52.245v-234.58
				C365.675,117.93,364.548,115.301,362.58,113.371z M256,104.49V36.571l73.665,73.143h-68.441
				c-2.579,0.307-4.918-1.535-5.224-4.114C255.956,105.232,255.956,104.859,256,104.49z M344.816,355.265
				c0,17.312-14.035,31.347-31.347,31.347H94.041c-17.312,0-31.347-14.034-31.347-31.347V52.245
				c0-17.312,14.034-31.347,31.347-31.347h141.061v83.592c0,14.427,11.695,26.122,26.122,26.122h83.592V355.265z"/>
		</g>
	</g>
</g>
<g>
</g>
<g>
</g>
<g>
</g>
<g>
</g>
<g>
</g>
<g>
</g>
<g>
</g>
<g>
</g>
<g>
</g>
<g>
</g>
<g>
</g>
<g>
</g>
<g>
</g>
<g>
</g>
<g>
</g>
</svg>
