<?xml version="1.0" encoding="iso-8859-1"?>
<!-- Generator: Adobe Illustrator 19.0.0, SVG Export Plug-In . SVG Version: 6.00 Build 0)  -->
<svg version="1.1" id="Capa_1" xmlns="http://www.w3.org/2000/svg" xmlns:xlink="http://www.w3.org/1999/xlink" x="0px" y="0px"
	 viewBox="0 0 407.51 407.51" style="enable-background:new 0 0 407.51 407.51;" xml:space="preserve">
<g>
	<g>
		<g>
			<path d="M210.547,219.429c0,5.771,4.678,10.449,10.449,10.449h38.139l-40.751,44.931l-44.931-41.796
				c-2.143-1.91-4.977-2.855-7.837-2.612c-3.013-0.027-5.808,1.57-7.314,4.18l-43.363,60.604
				c-3.522,4.201-2.971,10.462,1.231,13.984c0.275,0.23,0.561,0.445,0.859,0.644c4.3,3.401,10.543,2.671,13.943-1.629
				c0.248-0.314,0.477-0.642,0.685-0.983l36.571-51.2l43.886,40.229c1.805,2.103,4.586,3.096,7.314,2.612
				c2.756-0.039,5.385-1.166,7.314-3.135l44.931-50.678v33.959c0,5.771,4.678,10.449,10.449,10.449
				c5.771,0,10.449-4.678,10.449-10.449v-61.649c0-5.747-4.702-8.359-10.449-8.359h-61.127
				C215.225,208.98,210.547,213.658,210.547,219.429z"/>
			<path d="M362.58,113.371L251.82,3.135c-1.929-1.969-4.558-3.095-7.314-3.135H94.041C65.187,0,41.796,23.391,41.796,52.245v303.02
				c0,28.854,23.391,52.245,52.245,52.245h219.429c28.854,0,52.245-23.391,52.245-52.245v-234.58
				C365.675,117.93,364.548,115.301,362.58,113.371z M256,104.49V36.571l73.665,73.143h-68.441
				c-2.579,0.307-4.918-1.535-5.224-4.114C255.956,105.232,255.956,104.859,256,104.49z M344.816,355.265
				c0,17.312-14.035,31.347-31.347,31.347H94.041c-17.312,0-31.347-14.034-31.347-31.347V52.245
				c0-17.312,14.034-31.347,31.347-31.347h141.061v83.592c0,14.427,11.695,26.122,26.122,26.122h83.592V355.265z"/>
		</g>
	</g>
</g>
<g>
</g>
<g>
</g>
<g>
</g>
<g>
</g>
<g>
</g>
<g>
</g>
<g>
</g>
<g>
</g>
<g>
</g>
<g>
</g>
<g>
</g>
<g>
</g>
<g>
</g>
<g>
</g>
<g>
</g>
</svg>
