<?xml version="1.0" encoding="iso-8859-1"?>
<!-- Generator: Adobe Illustrator 19.0.0, SVG Export Plug-In . SVG Version: 6.00 Build 0)  -->
<svg version="1.1" id="Capa_1" xmlns="http://www.w3.org/2000/svg" xmlns:xlink="http://www.w3.org/1999/xlink" x="0px" y="0px"
	 viewBox="0 0 407.51 407.51" style="enable-background:new 0 0 407.51 407.51;" xml:space="preserve">
<g>
	<g>
		<g>
			<path d="M119.118,256c0,46.744,37.893,84.637,84.637,84.637s84.637-37.893,84.637-84.637s-37.893-84.637-84.637-84.637
				C157.13,171.648,119.404,209.375,119.118,256z M267.494,256c0,35.202-28.537,63.739-63.739,63.739
				c-13.3-0.135-26.241-4.327-37.094-12.016l88.816-88.816C263.167,229.759,267.359,242.7,267.494,256z M152.033,293.094
				c-7.689-10.852-11.882-23.794-12.016-37.094c0-35.202,28.537-63.739,63.739-63.739c13.3,0.135,26.241,4.327,37.094,12.016
				L152.033,293.094z"/>
			<path d="M362.58,113.371L251.82,3.135c-1.929-1.969-4.558-3.095-7.314-3.135H94.041C65.187,0,41.796,23.391,41.796,52.245v303.02
				c0,28.854,23.391,52.245,52.245,52.245h219.429c28.854,0,52.245-23.391,52.245-52.245v-234.58
				C365.675,117.93,364.548,115.301,362.58,113.371z M256,104.49V36.571l73.665,73.143h-68.441
				c-2.579,0.307-4.918-1.535-5.224-4.114C255.956,105.232,255.956,104.859,256,104.49z M344.816,355.265
				c0,17.312-14.035,31.347-31.347,31.347H94.041c-17.312,0-31.347-14.034-31.347-31.347V52.245
				c0-17.312,14.034-31.347,31.347-31.347h141.061v83.592c0,14.427,11.695,26.122,26.122,26.122h83.592V355.265z"/>
		</g>
	</g>
</g>
<g>
</g>
<g>
</g>
<g>
</g>
<g>
</g>
<g>
</g>
<g>
</g>
<g>
</g>
<g>
</g>
<g>
</g>
<g>
</g>
<g>
</g>
<g>
</g>
<g>
</g>
<g>
</g>
<g>
</g>
</svg>
