<?xml version="1.0" encoding="iso-8859-1"?>
<!-- Generator: Adobe Illustrator 19.0.0, SVG Export Plug-In . SVG Version: 6.00 Build 0)  -->
<svg version="1.1" id="Capa_1" xmlns="http://www.w3.org/2000/svg" xmlns:xlink="http://www.w3.org/1999/xlink" x="0px" y="0px"
	 viewBox="0 0 364.147 364.147" style="enable-background:new 0 0 364.147 364.147;" xml:space="preserve">
<g>
	<g>
		<g>
			<path d="M276.114,136.882c-1.792-3.386-5.091-5.715-8.882-6.269H96.914c-3.791,0.555-7.09,2.883-8.882,6.269L42.58,210.547
				l-1.567,3.657v2.612c0,1.045,0.522,2.09,0.522,3.135h0.522l1.567,2.612l130.612,138.971l2.09,1.567l2.612,1.045h7.314
				c0-0.289,0.234-0.522,0.522-0.522h1.567l1.045-1.045h0.522l130.612-138.971l1.567-2.612h0.522c0-1.045,0.522-2.09,0.522-3.135
				v-3.657l-1.567-2.612L276.114,136.882z M149.682,151.51h64.261l11.494,52.245h-86.204L149.682,151.51z M102.661,151.51h25.6
				l-10.449,52.245H70.269L102.661,151.51z M75.494,224.653h43.886l32.392,80.98L75.494,224.653z M182.073,324.441l-40.229-99.788
				h80.457L182.073,324.441z M212.375,305.633l32.392-80.98h43.886L212.375,305.633z M246.857,203.755l-11.494-52.245h26.122
				l32.392,52.245H246.857z"/>
			<path d="M182.073,73.143c5.771,0,10.449-4.678,10.449-10.449V10.449C192.522,4.678,187.844,0,182.073,0
				s-10.449,4.678-10.449,10.449v52.245C171.624,68.465,176.303,73.143,182.073,73.143z"/>
			<path d="M339.853,53.29c-4.737-2.946-10.906-2.064-14.629,2.09l-31.347,41.796c-3.518,4.784-2.592,11.498,2.09,15.151
				c1.903,1.166,4.048,1.881,6.269,2.09c3.27-0.077,6.335-1.61,8.359-4.18l31.347-41.796
				C345.461,63.657,344.535,56.942,339.853,53.29z"/>
			<path d="M61.91,114.416c2.222-0.209,4.366-0.924,6.269-2.09c4.682-3.653,5.608-10.367,2.09-15.151L38.922,55.38
				c-3.723-4.154-9.891-5.035-14.629-2.09c-4.682,3.653-5.608,10.367-2.09,15.151l31.347,41.796
				C55.575,112.806,58.64,114.339,61.91,114.416z"/>
		</g>
	</g>
</g>
<g>
</g>
<g>
</g>
<g>
</g>
<g>
</g>
<g>
</g>
<g>
</g>
<g>
</g>
<g>
</g>
<g>
</g>
<g>
</g>
<g>
</g>
<g>
</g>
<g>
</g>
<g>
</g>
<g>
</g>
</svg>
