<?xml version="1.0" encoding="iso-8859-1"?>
<!-- Generator: Adobe Illustrator 19.0.0, SVG Export Plug-In . SVG Version: 6.00 Build 0)  -->
<svg version="1.1" id="Capa_1" xmlns="http://www.w3.org/2000/svg" xmlns:xlink="http://www.w3.org/1999/xlink" x="0px" y="0px"
	 viewBox="0 0 470.222 470.222" style="enable-background:new 0 0 470.222 470.222;" xml:space="preserve">
<g>
	<g>
		<g>
			<path d="M346.922,0.004c-0.002,0-0.005,0-0.007,0H123.307c-21.639-0.29-39.416,17.016-39.706,38.654c0,0.002,0,0.005,0,0.007
				v393.927c0.281,21.062,17.582,37.908,38.643,37.627c0.18-0.002,0.36-0.006,0.54-0.011h222.041
				c22.499,0.577,41.205-17.194,41.783-39.693c0.009-0.353,0.013-0.706,0.013-1.058V38.665
				C386.335,17.026,368.561-0.283,346.922,0.004z M365.723,429.457c0.015,10.964-8.861,19.865-19.826,19.881
				c-0.358,0-0.715-0.009-1.072-0.027H122.785c-9.504,0.581-17.68-6.653-18.261-16.157c-0.011-0.187-0.02-0.374-0.025-0.562V38.665
				c0.284-10.095,8.698-18.048,18.793-17.764c0.005,0,0.01,0,0.015,0h223.608c10.095-0.293,18.515,7.654,18.808,17.748
				c0,0.005,0,0.01,0,0.015V429.457z"/>
			<path d="M334.376,41.799H135.846c-5.771,0-10.449,4.678-10.449,10.449v303.02c0,5.771,4.678,10.449,10.449,10.449h198.531
				c5.771,0,10.449-4.678,10.449-10.449V52.249C344.825,46.478,340.147,41.799,334.376,41.799z M323.927,344.82H146.295V62.698
				h177.633V344.82z"/>
			<path d="M235.121,382.436c-0.003,0-0.007,0-0.01,0c-14.993-0.577-27.615,11.109-28.192,26.102
				c-0.577,14.993,11.109,27.615,26.102,28.192c14.993,0.577,27.615-11.109,28.192-26.102c0.013-0.341,0.02-0.683,0.02-1.025
				C261.525,394.891,249.834,382.728,235.121,382.436z M235.66,415.324c-0.182,0.018-0.366,0.027-0.549,0.026
				c-2.869,0.305-5.442-1.774-5.747-4.644c-0.039-0.367-0.039-0.737,0-1.103c-0.289-3.161,2.04-5.957,5.201-6.246
				c0.182-0.017,0.364-0.025,0.546-0.024c3.135,0,5.224,2.612,5.224,6.269C240.624,412.474,238.531,415.036,235.66,415.324z"/>
		</g>
	</g>
</g>
<g>
</g>
<g>
</g>
<g>
</g>
<g>
</g>
<g>
</g>
<g>
</g>
<g>
</g>
<g>
</g>
<g>
</g>
<g>
</g>
<g>
</g>
<g>
</g>
<g>
</g>
<g>
</g>
<g>
</g>
</svg>
