<?xml version="1.0" encoding="iso-8859-1"?>
<!-- Generator: Adobe Illustrator 19.0.0, SVG Export Plug-In . SVG Version: 6.00 Build 0)  -->
<svg version="1.1" id="Capa_1" xmlns="http://www.w3.org/2000/svg" xmlns:xlink="http://www.w3.org/1999/xlink" x="0px" y="0px"
	 viewBox="0 0 447.2 447.2" style="enable-background:new 0 0 447.2 447.2;" xml:space="preserve">
<g>
	<g>
		<path d="M108.6,98.25H98.2c-5.8,0-10.4,4.7-10.4,10.4c0,5.7,4.6,10.4,10.4,10.4h10.4c5.8,0,10.4-4.7,10.4-10.4
			C119,102.95,114.3,98.25,108.6,98.25z"/>
	</g>
</g>
<g>
	<g>
		<path d="M108.6,218.45H98.2c-5.8,0-10.4,4.7-10.4,10.4c0,5.7,4.6,10.4,10.4,10.4h10.4c5.8,0,10.4-4.7,10.4-10.4
			C119,223.15,114.3,218.45,108.6,218.45z"/>
	</g>
</g>
<g>
	<g>
		<path d="M108.6,333.35H98.2c-5.8,0-10.4,4.7-10.4,10.4c-0.1,5.7,4.6,10.4,10.4,10.4h10.4c5.8,0,10.4-4.7,10.4-10.4
			C119,337.95,114.3,333.35,108.6,333.35z"/>
	</g>
</g>
<g>
	<g>
		<path d="M209,61.65H57.4c-5.8,0-10.4,4.7-10.4,10.4v67.9c0,5.8,4.7,10.4,10.4,10.4h151.5c5.8,0,10.4-4.7,10.4-10.4v-67.9h0.1
			C219.4,66.25,214.7,61.65,209,61.65z M200.7,129.55H67.9v-47h132.8V129.55z"/>
	</g>
</g>
<g>
	<g>
		<path d="M166,98.25h-10.4c-5.8,0-10.4,4.7-10.4,10.4c0,5.7,4.7,10.4,10.4,10.4H166c5.8,0,10.4-4.7,10.4-10.4
			C176.4,102.95,171.7,98.25,166,98.25z"/>
	</g>
</g>
<g>
	<g>
		<path d="M209,181.85H57.4c-5.8,0-10.4,4.7-10.4,10.4v67.9c0,5.8,4.7,10.4,10.4,10.4h151.5c5.8,0,10.4-4.7,10.4-10.4v-67.9h0.1
			C219.4,186.45,214.7,181.85,209,181.85z M200.7,249.65H67.9v-47h132.8V249.65z"/>
	</g>
</g>
<g>
	<g>
		<path d="M166,218.45h-10.4c-5.8,0-10.4,4.7-10.4,10.4c0,5.7,4.7,10.4,10.4,10.4H166c5.8,0,10.4-4.7,10.4-10.4
			C176.4,223.15,171.7,218.45,166,218.45z"/>
	</g>
</g>
<g>
	<g>
		<path d="M209,296.75H57.4c-5.8,0-10.4,4.7-10.4,10.4v67.9c0,5.8,4.7,10.4,10.4,10.4h151.5c5.8,0,10.4-4.7,10.4-10.4v-67.9h0.1
			C219.4,301.35,214.7,296.75,209,296.75z M200.7,364.65H67.9v-47h132.8V364.65z"/>
	</g>
</g>
<g>
	<g>
		<path d="M166,333.35h-10.4c-5.8,0-10.4,4.7-10.4,10.4c0,5.7,4.7,10.4,10.4,10.4H166c5.8,0,10.4-4.7,10.4-10.4
			C176.4,337.95,171.7,333.35,166,333.35z"/>
	</g>
</g>
<g>
	<g>
		<path d="M398.1,186.95h2.1c26,0,47-21.1,47-47c0-25.9-21.1-47-47-47H271.6v-30.8c-1.1-32.2-27.4-57.7-59.6-58H59
			c-32.1,0.3-58.2,25.9-59,58v322.9c0.8,32.1,26.9,57.7,59,58h153.1c32.2-0.3,58.4-25.8,59.6-58v-271.2h128.5
			c14.4,0,26.1,11.7,26.1,26.1c0,14.4-11.7,26.1-26.1,26.1h-2.1c-17.9,0.8-32.1,15.5-32.4,33.4v55.4c-26.9,5.6-46.4,29-47,56.4v31.3
			c1.2,6.4,6.6,11.1,13.1,11.5h7.8v35.5c0,5.8,4.7,10.4,10.4,10.4c5.8,0,10.4-4.7,10.4-10.4v-35.5h31.3v35.5
			c0,5.8,4.7,10.4,10.4,10.4c5.8,0,10.4-4.7,10.4-10.4v-35.5h13.1c5.7,0,7.8-5.7,7.8-11.5v-31.3c0.2-27.9-19.6-51.9-47-56.9v-54.8
			C386.8,193.05,391.7,187.75,398.1,186.95z M245.5,385.55c0,20.2-16.4,36.6-36.6,36.6H57.4c-20.2,0-36.6-16.4-36.6-36.6v-324
			c0-20.2,16.4-36.6,36.6-36.6h151.5c20.2,0,36.6,16.4,36.6,36.6V385.55z M412.7,311.35v21.9h-73.1v-21.9
			c0-20.2,16.4-36.6,36.6-36.6S412.7,291.15,412.7,311.35z"/>
	</g>
</g>
<g>
</g>
<g>
</g>
<g>
</g>
<g>
</g>
<g>
</g>
<g>
</g>
<g>
</g>
<g>
</g>
<g>
</g>
<g>
</g>
<g>
</g>
<g>
</g>
<g>
</g>
<g>
</g>
<g>
</g>
</svg>
