<?xml version="1.0" encoding="iso-8859-1"?>
<!-- Generator: Adobe Illustrator 19.0.0, SVG Export Plug-In . SVG Version: 6.00 Build 0)  -->
<svg version="1.1" id="Capa_1" xmlns="http://www.w3.org/2000/svg" xmlns:xlink="http://www.w3.org/1999/xlink" x="0px" y="0px"
	 viewBox="0 0 428.956 428.956" style="enable-background:new 0 0 428.956 428.956;" xml:space="preserve">
<g>
	<g>
		<g>
			<path d="M410.144,246.631h0.522c4.788-1.045,7.972-5.592,7.314-10.449v-53.812c0.657-4.857-2.526-9.404-7.314-10.449
				l-32.914-5.747c-4.087-15.883-10.235-31.164-18.286-45.453l19.853-27.69c2.5-4.307,2.085-9.71-1.045-13.584l-38.661-38.661
				c-3.737-3.458-9.362-3.891-13.584-1.045l-27.69,19.853c-14.352-7.92-29.615-14.06-45.453-18.286l-5.747-32.914
				c-0.548-4.989-4.917-8.668-9.927-8.359h-54.335c-5.12-0.333-9.65,3.291-10.449,8.359l-5.747,32.914
				c-15.901,4.275-31.18,10.597-45.453,18.808L93.54,40.263c-4.307-2.5-9.71-2.085-13.584,1.045L41.295,79.969
				c-3.458,3.737-3.891,9.362-1.045,13.584l19.853,27.69c-8.299,14.229-14.627,29.52-18.808,45.453L8.38,172.443
				c-5.068,0.799-8.692,5.329-8.359,10.449v54.335c-0.309,5.009,3.37,9.378,8.359,9.927l32.914,5.747
				c4.275,15.901,10.597,31.18,18.808,45.453l-19.853,27.69c-2.5,4.307-2.085,9.71,1.045,13.584l38.661,38.661
				c3.737,3.458,9.362,3.891,13.584,1.045l27.69-19.853c14.229,8.299,29.52,14.627,45.453,18.808l5.747,32.392
				c1.045,4.788,5.592,7.972,10.449,7.314h54.335c4.669,0.374,8.901-2.744,9.927-7.314c46.97,29.599,108.187,22.652,147.331-16.718
				C433.691,354.647,440.215,293.316,410.144,246.631z M228.331,397.096h-37.094l-5.224-30.302
				c-0.462-4.122-3.715-7.375-7.837-7.837c-18.298-3.991-35.787-11.058-51.722-20.898c-3.591-2.141-8.112-1.935-11.494,0.522
				l-26.122,18.286l-26.122-26.122l18.286-26.122c2.296-3.487,2.296-8.007,0-11.494c-9.796-15.958-16.859-33.439-20.898-51.722
				c-0.632-4.037-3.799-7.205-7.837-7.837l-31.347-5.224v-37.094l31.347-5.224c4.122-0.462,7.375-3.715,7.837-7.837
				c4.223-18.226,11.275-35.678,20.898-51.722c2.614-3.385,2.614-8.108,0-11.494L62.715,88.851l26.122-26.122l26.122,18.286
				c3.487,2.297,8.007,2.297,11.494,0c15.958-9.796,33.439-16.859,51.722-20.898c4.038-0.632,7.205-3.799,7.837-7.837l5.224-31.347
				h37.094l5.224,31.347c0.462,4.122,3.715,7.375,7.837,7.837c18.226,4.223,35.678,11.275,51.722,20.898
				c3.385,2.614,8.108,2.614,11.494,0l26.122-18.808l26.122,26.122l-18.286,26.122c-2.297,3.487-2.297,8.007,0,11.494
				c9.796,15.958,16.859,33.439,20.898,51.722c1.045,4.18,3.135,7.314,7.314,7.837l30.302,5.224v37.094h-2.09l-1.045-2.612
				c-22.226-22.451-52.522-35.059-84.114-35.004h-4.18c-9.594-53.097-60.415-88.364-113.513-78.77
				c-47.037,8.499-81.019,49.784-80.316,97.578c-0.5,47.117,33.048,87.728,79.412,96.131c0,1.567-0.522,3.135-0.522,4.702
				c-0.02,31.738,12.572,62.184,35.004,84.637l2.612,1.045V397.096z M285.278,193.863c-22.482,4.737-43.144,15.794-59.559,31.869
				c-16.044,16.023-27.112,36.344-31.869,58.514c-41.55-8.524-68.323-49.118-59.798-90.668c7.347-35.81,38.916-61.479,75.472-61.365
				C246.129,132.396,277.663,158.058,285.278,193.863z M379.319,379.333c-18.265,18.667-43.371,29.049-69.486,28.735
				c-54.246,0-98.22-43.975-98.22-98.22s43.975-98.22,98.22-98.22c54.246,0,98.22,43.975,98.22,98.22
				C408.368,335.961,397.986,361.068,379.319,379.333z"/>
			<path d="M354.845,272.312c-0.192-0.21-0.394-0.411-0.603-0.603c-3.706-4.04-9.986-4.31-14.025-0.603
				c-0.21,0.192-0.411,0.394-0.603,0.603l-29.78,29.78l-29.257-29.78c-3.462-4.617-10.012-5.552-14.629-2.09
				c-4.617,3.462-5.552,10.012-2.09,14.629c0.594,0.792,1.298,1.496,2.09,2.09l29.257,29.78l-29.257,29.257
				c-4.047,4.24-4.047,10.911,0,15.151c1.854,2.076,4.532,3.224,7.314,3.135c2.756-0.039,5.385-1.166,7.314-3.135l29.257-29.78
				l29.78,29.78c3.706,4.04,9.986,4.31,14.025,0.603c0.21-0.192,0.411-0.394,0.603-0.603c4.047-4.24,4.047-10.911,0-15.151
				l-29.257-29.257l29.257-29.78C358.281,282.63,358.551,276.351,354.845,272.312z"/>
		</g>
	</g>
</g>
<g>
</g>
<g>
</g>
<g>
</g>
<g>
</g>
<g>
</g>
<g>
</g>
<g>
</g>
<g>
</g>
<g>
</g>
<g>
</g>
<g>
</g>
<g>
</g>
<g>
</g>
<g>
</g>
<g>
</g>
</svg>
