<?xml version="1.0" encoding="iso-8859-1"?>
<!-- Generator: Adobe Illustrator 19.0.0, SVG Export Plug-In . SVG Version: 6.00 Build 0)  -->
<svg version="1.1" id="Capa_1" xmlns="http://www.w3.org/2000/svg" xmlns:xlink="http://www.w3.org/1999/xlink" x="0px" y="0px"
	 viewBox="0 0 459.755 459.755" style="enable-background:new 0 0 459.755 459.755;" xml:space="preserve">
<g>
	<g>
		<g>
			<path d="M229.878,13.061c-33.959,0-70.008,9.927-72.62,30.825c0,0.522-0.522,1.567-0.522,2.09v106.58
				c0,22.465,38.139,32.914,73.143,32.914s73.143-10.449,73.143-32.914V45.976c0-0.522-0.522-1.567-0.522-2.09
				C299.886,22.988,263.837,13.061,229.878,13.061z M229.878,33.959c30.302,0,48.065,7.837,51.2,12.016
				c3.135,4.18-20.898,12.016-51.2,12.016c-30.302,0-48.065-8.359-51.2-12.016C175.543,42.318,199.575,33.959,229.878,33.959z
				 M282.122,152.033c-5.224,3.657-20.898,12.539-52.245,12.539s-47.02-8.882-52.245-12.539v-29.78
				c33.826,11.826,70.664,11.826,104.49,0V152.033z M282.122,97.698c-5.224,3.657-20.898,12.539-52.245,12.539
				s-47.02-8.882-52.245-12.539v-27.69c16.774,5.945,34.449,8.949,52.245,8.882c17.796,0.068,35.471-2.937,52.245-8.882V97.698z"/>
			<path d="M213.682,94.041c0,5.771,4.678,10.449,10.449,10.449h11.494c5.771,0,10.449-4.678,10.449-10.449
				s-4.678-10.449-10.449-10.449h-11.494C218.36,83.592,213.682,88.27,213.682,94.041z"/>
			<path d="M213.682,146.286c0,5.771,4.678,10.449,10.449,10.449h11.494c5.771,0,10.449-4.678,10.449-10.449
				s-4.678-10.449-10.449-10.449h-11.494C218.36,135.837,213.682,140.515,213.682,146.286z"/>
			<path d="M60.082,258.612c5.771,0,10.449-4.678,10.449-10.449c-0.033-48.336,21.875-94.074,59.559-124.343
				c4.134-4.027,4.22-10.642,0.193-14.776c-3.503-3.596-9.069-4.192-13.254-1.42c-42.667,34.161-67.47,85.881-67.396,140.539
				C49.633,253.934,54.311,258.612,60.082,258.612z"/>
			<path d="M280.8,399.061c-0.082,0.029-0.164,0.059-0.245,0.09c-32.719,10.952-68.114,10.952-100.833,0
				c-5.48-1.708-11.312,1.325-13.061,6.792c-1.985,5.11,0.549,10.862,5.659,12.847c0.201,0.078,0.404,0.149,0.61,0.214
				c37.108,12.541,77.309,12.541,114.416,0c5.538-1.976,8.534-7.967,6.792-13.584C292.212,399.981,286.24,397.134,280.8,399.061z"/>
			<path d="M321.829,118.073c42.319,29.793,67.468,78.336,67.396,130.09c0,5.771,4.678,10.449,10.449,10.449
				s10.449-4.678,10.449-10.449c-0.145-58.546-28.554-113.418-76.278-147.331c-4.761-3.318-11.31-2.149-14.629,2.612
				C315.898,108.206,317.068,114.755,321.829,118.073z"/>
			<path d="M73.143,274.286c-33.959,0-70.008,9.927-72.62,30.825c0,0.522-0.522,1.567-0.522,2.09v106.58
				c0,22.465,38.139,32.914,73.143,32.914s73.143-10.449,73.143-32.914V307.2c0-0.522-0.522-1.567-0.522-2.09
				C143.151,284.212,107.102,274.286,73.143,274.286z M73.143,295.184c30.302,0,48.065,7.837,51.2,12.016
				c3.135,4.18-20.898,12.016-51.2,12.016c-30.302,0-48.065-8.359-51.2-12.016S42.841,295.184,73.143,295.184z M125.388,413.257
				c-5.224,3.657-20.898,12.539-52.245,12.539s-47.02-8.882-52.245-12.539v-29.78c16.774,5.945,34.449,8.949,52.245,8.882
				c17.796,0.068,35.471-2.937,52.245-8.882V413.257z M125.388,358.922c-5.224,3.657-20.898,12.539-52.245,12.539
				s-47.02-8.882-52.245-12.539v-27.69c16.774,5.945,34.449,8.949,52.245,8.882c17.796,0.068,35.471-2.937,52.245-8.882V358.922z"/>
			<path d="M56.947,355.265c0,5.771,4.678,10.449,10.449,10.449H78.89c5.771,0,10.449-4.678,10.449-10.449
				s-4.678-10.449-10.449-10.449H67.396C61.625,344.816,56.947,349.495,56.947,355.265z"/>
			<path d="M56.947,407.51c0,5.771,4.678,10.449,10.449,10.449H78.89c5.771,0,10.449-4.678,10.449-10.449
				s-4.678-10.449-10.449-10.449H67.396C61.625,397.061,56.947,401.739,56.947,407.51z"/>
			<path d="M459.233,305.11c-2.612-20.898-38.661-30.824-72.62-30.824s-70.008,9.927-72.62,30.825c0,0.522-0.522,1.567-0.522,2.09
				v106.58c0,22.465,38.139,32.914,73.143,32.914s73.143-10.449,73.143-32.914V307.2
				C459.755,306.678,459.233,305.633,459.233,305.11z M386.612,295.184c30.302,0,48.065,7.837,51.2,12.016
				c3.135,4.18-20.898,12.016-51.2,12.016s-48.065-8.359-51.2-12.016S356.31,295.184,386.612,295.184z M438.857,413.257
				c-5.224,3.657-20.898,12.539-52.245,12.539s-47.02-8.882-52.245-12.539v-29.78c33.826,11.826,70.664,11.826,104.49,0V413.257z
				 M438.857,358.922c-5.224,3.657-20.898,12.539-52.245,12.539s-47.02-8.882-52.245-12.539v-27.69
				c33.826,11.826,70.664,11.826,104.49,0V358.922z"/>
			<path d="M370.416,355.265c0,5.771,4.678,10.449,10.449,10.449h11.494c5.771,0,10.449-4.678,10.449-10.449
				s-4.678-10.449-10.449-10.449h-11.494C375.094,344.816,370.416,349.495,370.416,355.265z"/>
			<path d="M370.416,407.51c0,5.771,4.678,10.449,10.449,10.449h11.494c5.771,0,10.449-4.678,10.449-10.449
				s-4.678-10.449-10.449-10.449h-11.494C375.094,397.061,370.416,401.739,370.416,407.51z"/>
		</g>
	</g>
</g>
<g>
</g>
<g>
</g>
<g>
</g>
<g>
</g>
<g>
</g>
<g>
</g>
<g>
</g>
<g>
</g>
<g>
</g>
<g>
</g>
<g>
</g>
<g>
</g>
<g>
</g>
<g>
</g>
<g>
</g>
</svg>
