<?xml version="1.0" encoding="iso-8859-1"?>
<!-- Generator: Adobe Illustrator 19.0.0, SVG Export Plug-In . SVG Version: 6.00 Build 0)  -->
<svg version="1.1" id="Capa_1" xmlns="http://www.w3.org/2000/svg" xmlns:xlink="http://www.w3.org/1999/xlink" x="0px" y="0px"
	 viewBox="0 0 459.755 459.755" style="enable-background:new 0 0 459.755 459.755;" xml:space="preserve">
<g>
	<g>
		<g>
			<path d="M294.661,26.122H165.094c-5.747,0-8.359,5.747-8.359,11.494v94.041c0,5.747,2.612,9.404,8.359,9.404h28.212v10.449
				h-9.927c-5.771,0-10.449,4.678-10.449,10.449c0,5.771,4.678,10.449,10.449,10.449h91.429c5.771,0,10.449-4.678,10.449-10.449
				c0-5.771-4.678-10.449-10.449-10.449h-8.359v-10.449h28.212c5.747,0,8.359-3.657,8.359-9.404V37.616
				C303.02,31.869,300.408,26.122,294.661,26.122z M245.551,151.51h-31.347v-10.449h31.347V151.51z M282.122,120.163h-104.49V47.02
				h104.49V120.163z"/>
			<path d="M60.082,245.551c5.771,0,10.449-4.678,10.449-10.449c-0.033-48.336,21.875-94.074,59.559-124.343
				c4.134-4.027,4.22-10.642,0.193-14.776c-3.503-3.596-9.069-4.192-13.254-1.42c-42.667,34.161-67.47,85.881-67.396,140.539
				C49.633,240.873,54.311,245.551,60.082,245.551z"/>
			<path d="M280.8,386c-0.082,0.029-0.164,0.059-0.245,0.09c-32.719,10.953-68.114,10.953-100.833,0
				c-5.48-1.708-11.312,1.325-13.061,6.792c-1.985,5.11,0.549,10.862,5.659,12.847c0.201,0.078,0.404,0.149,0.61,0.214
				c37.108,12.541,77.309,12.541,114.416,0c5.538-1.976,8.534-7.967,6.792-13.584C292.212,386.92,286.24,384.072,280.8,386z"/>
			<path d="M321.829,105.012c42.319,29.793,67.468,78.336,67.396,130.09c0,5.771,4.678,10.449,10.449,10.449
				s10.449-4.678,10.449-10.449c-0.145-58.546-28.554-113.418-76.278-147.331c-4.761-3.318-11.31-2.149-14.629,2.612
				C315.898,95.145,317.068,101.694,321.829,105.012z"/>
			<path d="M137.926,287.347H8.359c-5.747,0-8.359,5.747-8.359,11.494v94.041c0,5.747,2.612,9.404,8.359,9.404h28.212v10.449h-9.927
				c-5.771,0-10.449,4.678-10.449,10.449s4.678,10.449,10.449,10.449h91.429c5.771,0,10.449-4.678,10.449-10.449
				s-4.678-10.449-10.449-10.449h-8.359v-10.449h28.212c5.747,0,8.359-3.657,8.359-9.404v-94.041
				C146.286,293.094,143.673,287.347,137.926,287.347z M88.816,412.735H57.469v-10.449h31.347V412.735z M125.388,381.388H20.898
				v-73.143h104.49V381.388z"/>
			<path d="M451.396,287.347H321.829c-5.747,0-8.359,5.747-8.359,11.494v94.041c0,5.747,2.612,9.404,8.359,9.404h28.212v10.449
				h-9.927c-5.771,0-10.449,4.678-10.449,10.449s4.678,10.449,10.449,10.449h91.429c5.771,0,10.449-4.678,10.449-10.449
				s-4.678-10.449-10.449-10.449h-8.359v-10.449h28.212c5.747,0,8.359-3.657,8.359-9.404v-94.041
				C459.755,293.094,457.143,287.347,451.396,287.347z M402.286,412.735h-31.347v-10.449h31.347V412.735z M438.857,381.388h-104.49
				v-73.143h104.49V381.388z"/>
		</g>
	</g>
</g>
<g>
</g>
<g>
</g>
<g>
</g>
<g>
</g>
<g>
</g>
<g>
</g>
<g>
</g>
<g>
</g>
<g>
</g>
<g>
</g>
<g>
</g>
<g>
</g>
<g>
</g>
<g>
</g>
<g>
</g>
</svg>
