<?xml version="1.0" encoding="iso-8859-1"?>
<!-- Generator: Adobe Illustrator 19.0.0, SVG Export Plug-In . SVG Version: 6.00 Build 0)  -->
<svg version="1.1" id="Capa_1" xmlns="http://www.w3.org/2000/svg" xmlns:xlink="http://www.w3.org/1999/xlink" x="0px" y="0px"
	 viewBox="0 0 459.755 459.755" style="enable-background:new 0 0 459.755 459.755;" xml:space="preserve">
<g>
	<g>
		<g>
			<path d="M438.857,65.306H20.898C9.356,65.306,0,74.662,0,86.204v287.347c0,11.542,9.356,20.898,20.898,20.898h417.959
				c11.542,0,20.898-9.356,20.898-20.898V86.204C459.755,74.662,450.399,65.306,438.857,65.306z M129.045,368.327l12.539-26.122
				h176.588l12.539,26.122H129.045z M438.857,368.327h-85.159l-19.331-42.841c-1.567-3.657-5.224-4.18-9.404-4.18H134.792
				c-4.18,0-7.837,0.522-9.404,4.18l-19.331,42.841H20.898V86.204h417.959V368.327z"/>
			<path d="M313.992,159.347H140.539c-28.735,0-52.767,25.6-52.767,54.857s24.033,54.857,52.767,54.857h173.453
				c28.735,0,52.767-25.6,52.767-54.857S342.727,159.347,313.992,159.347z M313.992,248.163H140.539
				c-17.241,0-31.869-16.196-31.869-33.959c0-17.763,14.629-33.959,31.869-33.959h173.453c17.241,0,31.869,16.196,31.869,33.959
				C345.861,231.967,331.233,248.163,313.992,248.163z"/>
			<path d="M146.286,182.857c-17.312,0-31.347,14.034-31.347,31.347s14.034,31.347,31.347,31.347s31.347-14.034,31.347-31.347
				S163.598,182.857,146.286,182.857z M146.286,224.653c-5.771,0-10.449-4.678-10.449-10.449s4.678-10.449,10.449-10.449
				s10.449,4.678,10.449,10.449S152.057,224.653,146.286,224.653z"/>
			<path d="M308.245,182.857c-17.313,0-31.347,14.034-31.347,31.347s14.034,31.347,31.347,31.347
				c17.312,0,31.347-14.034,31.347-31.347S325.557,182.857,308.245,182.857z M308.245,224.653c-5.771,0-10.449-4.678-10.449-10.449
				s4.678-10.449,10.449-10.449c5.771,0,10.449,4.678,10.449,10.449S314.016,224.653,308.245,224.653z"/>
			<path d="M52.245,300.408h350.041c5.771,0,10.449-4.678,10.449-10.449V133.224c0-5.771-4.678-10.449-10.449-10.449H52.245
				c-5.771,0-10.449,4.678-10.449,10.449v156.735C41.796,295.73,46.474,300.408,52.245,300.408z M62.694,143.673h329.143v141.061
				H62.694V143.673z"/>
		</g>
	</g>
</g>
<g>
</g>
<g>
</g>
<g>
</g>
<g>
</g>
<g>
</g>
<g>
</g>
<g>
</g>
<g>
</g>
<g>
</g>
<g>
</g>
<g>
</g>
<g>
</g>
<g>
</g>
<g>
</g>
<g>
</g>
</svg>
