<?xml version="1.0" encoding="iso-8859-1"?>
<!-- Generator: Adobe Illustrator 19.0.0, SVG Export Plug-In . SVG Version: 6.00 Build 0)  -->
<svg version="1.1" id="Capa_1" xmlns="http://www.w3.org/2000/svg" xmlns:xlink="http://www.w3.org/1999/xlink" x="0px" y="0px"
	 viewBox="0 0 481.698 481.698" style="enable-background:new 0 0 481.698 481.698;" xml:space="preserve">
<g>
	<g>
		<g>
			<path d="M317.127,0H164.572c-40.229,0-75.233,31.869-75.233,72.098v74.71c0,40.229,35.004,72.62,75.233,72.62h13.584v192.784
				c0,2.612,2.09,4.702,3.657,6.792l49.633,59.037c2.068,2.149,4.861,3.453,7.837,3.657h1.045c2.513,0.02,4.94-0.913,6.792-2.612
				l49.633-44.931c4.303-3.397,5.037-9.639,1.64-13.942c-0.188-0.238-0.386-0.467-0.595-0.686l-20.898-23.51l18.286-14.106
				c2.31-2.133,3.472-5.234,3.135-8.359v-37.616c0.316-2.379-0.241-4.792-1.567-6.792l-15.673-18.808l14.106-11.494
				c2.31-2.133,3.472-5.234,3.135-8.359v-71.053h29.257c34.482,0,64.784-28.212,64.784-62.694V72.098
				C392.359,31.869,357.355,0,317.127,0z M277.421,285.257l-18.286,15.151c-2.116,1.876-3.426,4.496-3.657,7.314
				c-0.346,2.713,0.204,5.465,1.567,7.837l20.375,24.033v28.735l-23.51,17.763c-2.116,1.876-3.426,4.496-3.657,7.314
				c-0.104,2.937,1.034,5.781,3.135,7.837l21.943,24.555l-35.527,30.302l-40.751-47.543V219.951h78.367V285.257z M371.461,156.735
				c-0.567,23.251-19.583,41.803-42.841,41.796H164.049c-28.922,0.022-52.689-22.822-53.812-51.722v-74.71
				c0-28.735,25.6-51.2,54.335-51.2h152.555c28.735,0,54.335,22.465,54.335,51.2V156.735z"/>
			<path d="M269.584,67.918h-57.469c-23.083,0-41.796,18.713-41.796,41.796s18.713,41.796,41.796,41.796h57.469
				c23.083,0,41.796-18.713,41.796-41.796S292.667,67.918,269.584,67.918z M269.584,130.612h-57.469
				c-11.542,0-20.898-9.356-20.898-20.898s9.356-20.898,20.898-20.898h57.469c11.542,0,20.898,9.356,20.898,20.898
				S281.125,130.612,269.584,130.612z"/>
		</g>
	</g>
</g>
<g>
</g>
<g>
</g>
<g>
</g>
<g>
</g>
<g>
</g>
<g>
</g>
<g>
</g>
<g>
</g>
<g>
</g>
<g>
</g>
<g>
</g>
<g>
</g>
<g>
</g>
<g>
</g>
<g>
</g>
</svg>
