<?xml version="1.0" encoding="iso-8859-1"?>
<!-- Generator: Adobe Illustrator 19.0.0, SVG Export Plug-In . SVG Version: 6.00 Build 0)  -->
<svg version="1.1" id="Capa_1" xmlns="http://www.w3.org/2000/svg" xmlns:xlink="http://www.w3.org/1999/xlink" x="0px" y="0px"
	 viewBox="0 0 492.687 492.687" style="enable-background:new 0 0 492.687 492.687;" xml:space="preserve">
<g>
	<g>
		<g>
			<path d="M270.338,177.633c0-5.771-4.678-10.449-10.449-10.449H127.187c-5.771,0-10.449,4.678-10.449,10.449
				c0,5.771,4.678,10.449,10.449,10.449h132.702C265.66,188.082,270.338,183.403,270.338,177.633z"/>
			<path d="M452.15,474.906l-52.767-52.245c16.845-20.186,25.76-45.816,25.078-72.098c0.293-48.938-31.567-92.268-78.367-106.58
				V88.816c0-5.747-2.09-10.449-7.837-10.449h-28.735V8.359c0-5.747-3.135-8.359-9.404-8.359H89.57
				C61.358,0,37.848,20.898,37.848,49.11v292.571c0.572,34.043,28.633,61.177,62.676,60.604c0.006,0,0.012,0,0.018,0h113.371
				c28.196,54.934,95.587,76.609,150.521,48.413c7.241-3.717,14.055-8.213,20.32-13.409l52.245,52.245
				c2.055,2.1,4.9,3.238,7.837,3.135c2.692,0.159,5.332-0.784,7.314-2.612C455.735,485.643,455.735,479.32,452.15,474.906z
				 M89.025,20.883c0.182,0.003,0.364,0.008,0.546,0.014h199.053v57.469H89.57c-16.148,0.579-29.708-12.041-30.288-28.189
				c-0.007-0.182-0.011-0.364-0.015-0.546C59.546,33.477,72.869,20.605,89.025,20.883z M200.33,350.563
				c0.421,10.456,2.177,20.814,5.224,30.825H100.542c-22.499,0.584-41.211-17.181-41.795-39.679c0-0.009,0-0.018-0.001-0.027V89.861
				c9.129,6.093,19.849,9.363,30.824,9.404h235.625v140.016l-13.061-1.045c-61.748-0.001-111.805,50.055-111.805,111.803
				C200.328,350.214,200.329,350.389,200.33,350.563z M379.007,414.302l-1.567,1.045v1.567
				c-36.603,35.202-94.812,34.066-130.014-2.536c-16.492-17.149-25.696-40.023-25.676-63.815
				c-0.024-50.495,40.891-91.448,91.386-91.471c50.495-0.024,91.448,40.891,91.471,91.386c0,0.028,0,0.057,0,0.085
				C404.909,374.372,395.693,397.316,379.007,414.302z"/>
		</g>
	</g>
</g>
<g>
</g>
<g>
</g>
<g>
</g>
<g>
</g>
<g>
</g>
<g>
</g>
<g>
</g>
<g>
</g>
<g>
</g>
<g>
</g>
<g>
</g>
<g>
</g>
<g>
</g>
<g>
</g>
<g>
</g>
</svg>
