<?xml version="1.0" encoding="iso-8859-1"?>
<!-- Generator: Adobe Illustrator 19.0.0, SVG Export Plug-In . SVG Version: 6.00 Build 0)  -->
<svg version="1.1" id="Capa_1" xmlns="http://www.w3.org/2000/svg" xmlns:xlink="http://www.w3.org/1999/xlink" x="0px" y="0px"
	 viewBox="0 0 428.429 428.429" style="enable-background:new 0 0 428.429 428.429;" xml:space="preserve">
<g>
	<g>
		<g>
			<path d="M426.59,170.59c-2.597-21.785-22.362-37.34-44.147-34.743H360.5C357.122,59.212,293.531-0.91,216.827,0.01h-5.224
				C134.898-0.91,71.308,59.212,67.929,135.847H45.986c-21.785-2.597-41.55,12.958-44.147,34.743
				c-2.597,21.785,12.958,41.55,34.743,44.147v162.482c-0.006,28.277,22.912,51.205,51.189,51.211c0.352,0,0.704-0.004,1.056-0.011
				h250.775c28.271,0.577,51.657-21.873,52.234-50.144c0.007-0.352,0.011-0.704,0.011-1.056V214.737
				C413.632,212.14,429.187,192.375,426.59,170.59z M211.602,20.908h5.224c64.558,0.629,117.896,50.562,122.775,114.939H88.827
				C93.707,71.47,147.044,21.538,211.602,20.908z M370.949,377.219c0.01,16.735-13.549,30.31-30.284,30.32
				c-0.354,0-0.709-0.006-1.063-0.018H88.827c-16.725,0.577-30.752-12.514-31.329-29.239c-0.012-0.354-0.018-0.709-0.018-1.063
				V214.215h313.469V377.219z M382.443,193.317H45.986c-10.099,0-18.286-8.187-18.286-18.286c0-10.099,8.187-18.286,18.286-18.286
				h336.457c10.099,0,18.286,8.187,18.286,18.286C400.729,185.13,392.542,193.317,382.443,193.317z"/>
			<path d="M214.215,365.202c5.771,0,10.449-4.678,10.449-10.449v-83.592c0.297-5.474-3.901-10.152-9.375-10.449
				c-0.358-0.019-0.716-0.019-1.074,0c-5.474-0.297-10.152,3.901-10.449,9.375c-0.019,0.358-0.019,0.716,0,1.074v83.592
				C203.766,360.524,208.444,365.202,214.215,365.202z"/>
			<path d="M292.582,365.202c5.771,0,10.449-4.678,10.449-10.449v-83.592c0.297-5.474-3.901-10.152-9.375-10.449
				c-0.358-0.019-0.716-0.019-1.074,0c-5.474-0.297-10.152,3.901-10.449,9.375c-0.019,0.358-0.019,0.716,0,1.074v83.592
				C282.133,360.524,286.811,365.202,292.582,365.202z"/>
			<path d="M135.847,365.202c5.771,0,10.449-4.678,10.449-10.449v-83.592c0.297-5.474-3.901-10.152-9.375-10.449
				c-0.358-0.019-0.716-0.019-1.074,0c-5.474-0.297-10.152,3.901-10.449,9.375c-0.019,0.358-0.019,0.716,0,1.074v83.592
				C125.398,360.524,130.077,365.202,135.847,365.202z"/>
		</g>
	</g>
</g>
<g>
</g>
<g>
</g>
<g>
</g>
<g>
</g>
<g>
</g>
<g>
</g>
<g>
</g>
<g>
</g>
<g>
</g>
<g>
</g>
<g>
</g>
<g>
</g>
<g>
</g>
<g>
</g>
<g>
</g>
</svg>
