<?xml version="1.0" encoding="iso-8859-1"?>
<!-- Generator: Adobe Illustrator 19.0.0, SVG Export Plug-In . SVG Version: 6.00 Build 0)  -->
<svg version="1.1" id="Capa_1" xmlns="http://www.w3.org/2000/svg" xmlns:xlink="http://www.w3.org/1999/xlink" x="0px" y="0px"
	 viewBox="0 0 428.952 428.952" style="enable-background:new 0 0 428.952 428.952;" xml:space="preserve">
<g>
	<g>
		<g>
			<path d="M410.144,246.617h0.522c4.788-1.045,7.972-5.592,7.314-10.449v-53.812c0.657-4.857-2.526-9.404-7.314-10.449
				l-32.914-5.747c-4.087-15.883-10.235-31.164-18.286-45.453l19.853-27.69c2.5-4.307,2.085-9.71-1.045-13.584l-38.661-38.661
				c-3.737-3.458-9.362-3.891-13.584-1.045L298.34,59.58c-14.352-7.92-29.615-14.06-45.453-18.286L247.139,8.38
				c-0.548-4.989-4.917-8.668-9.927-8.359h-54.335c-5.12-0.333-9.65,3.291-10.449,8.359l-5.747,32.914
				c-15.901,4.275-31.18,10.597-45.453,18.808L93.54,40.25c-4.307-2.5-9.71-2.085-13.584,1.045L41.295,79.956
				c-3.458,3.737-3.891,9.362-1.045,13.584l19.853,27.69c-8.299,14.229-14.627,29.52-18.808,45.453L8.38,172.429
				c-5.068,0.799-8.692,5.329-8.359,10.449v54.335c-0.309,5.009,3.37,9.378,8.359,9.927l32.914,5.747
				c4.275,15.901,10.597,31.18,18.808,45.453l-19.853,27.69c-2.5,4.307-2.085,9.71,1.045,13.584l38.661,38.661
				c3.737,3.458,9.362,3.891,13.584,1.045l27.69-19.853c14.229,8.299,29.52,14.627,45.453,18.808l5.747,32.392
				c1.045,4.788,5.592,7.972,10.449,7.314h54.335c4.669,0.374,8.901-2.744,9.927-7.314c18.751,11.894,40.488,18.234,62.694,18.286
				c65.787,0,119.118-53.331,119.118-119.118C428.993,287.377,422.454,265.399,410.144,246.617z M228.331,397.082h-37.094
				l-5.224-30.302c-0.462-4.122-3.715-7.375-7.837-7.837c-18.298-3.991-35.787-11.058-51.722-20.898
				c-3.591-2.141-8.112-1.935-11.494,0.522l-26.122,18.286l-26.122-26.122l18.286-26.122c2.296-3.487,2.296-8.007,0-11.494
				c-9.796-15.958-16.859-33.439-20.898-51.722c-0.632-4.037-3.799-7.205-7.837-7.837l-31.347-5.224v-37.094l31.347-5.224
				c4.122-0.462,7.375-3.715,7.837-7.837c4.223-18.226,11.275-35.678,20.898-51.722c2.614-3.385,2.614-8.108,0-11.494L62.715,88.838
				l26.122-26.122l26.122,18.286c3.487,2.297,8.007,2.297,11.494,0c15.958-9.796,33.439-16.859,51.722-20.898
				c4.038-0.632,7.205-3.799,7.837-7.837l5.224-31.347h37.094l5.224,31.347c0.462,4.122,3.715,7.375,7.837,7.837
				c18.226,4.223,35.678,11.275,51.722,20.898c3.385,2.614,8.108,2.614,11.494,0l26.122-18.808l26.122,26.122l-18.286,26.122
				c-2.297,3.487-2.297,8.007,0,11.494c9.796,15.958,16.859,33.439,20.898,51.722c1.045,4.18,3.135,7.314,7.314,7.837l30.302,5.224
				v37.094h-2.09c-22.049-23.961-53.119-37.602-85.682-37.616h-3.657c-9.38-45.706-49.473-78.608-96.131-78.89
				c-53.957,0-97.698,43.741-97.698,97.698c-0.5,47.117,33.048,87.728,79.412,96.131c-0.428,1.529-0.605,3.117-0.522,4.702
				c-0.05,32.576,13.601,63.671,37.616,85.682V397.082z M285.278,193.327c-45.465,10.12-81.048,45.5-91.429,90.906
				c-41.55-8.524-68.323-49.118-59.798-90.668c7.347-35.81,38.916-61.478,75.472-61.365
				C245.971,132.329,277.451,157.73,285.278,193.327z M309.833,408.054c-54.246,0-98.22-43.975-98.22-98.22
				c0-54.246,43.975-98.22,98.22-98.22s98.22,43.975,98.22,98.22S364.079,408.054,309.833,408.054z"/>
			<path d="M359.988,283.711L359.988,283.711l-69.486,46.498l-25.6-38.139c-3.174-4.905-9.723-6.309-14.629-3.135
				c-4.905,3.174-6.309,9.723-3.135,14.629l31.347,47.02c2.027,2.911,5.335,4.662,8.882,4.702c2.027,0.046,4.024-0.498,5.747-1.567
				l78.367-52.245c4.905-3.174,6.309-9.723,3.135-14.629C371.443,281.941,364.894,280.537,359.988,283.711z"/>
		</g>
	</g>
</g>
<g>
</g>
<g>
</g>
<g>
</g>
<g>
</g>
<g>
</g>
<g>
</g>
<g>
</g>
<g>
</g>
<g>
</g>
<g>
</g>
<g>
</g>
<g>
</g>
<g>
</g>
<g>
</g>
<g>
</g>
</svg>
