<?xml version="1.0" encoding="iso-8859-1"?>
<!-- Generator: Adobe Illustrator 19.0.0, SVG Export Plug-In . SVG Version: 6.00 Build 0)  -->
<svg version="1.1" id="Capa_1" xmlns="http://www.w3.org/2000/svg" xmlns:xlink="http://www.w3.org/1999/xlink" x="0px" y="0px"
	 viewBox="0 0 449.306 449.306" style="enable-background:new 0 0 449.306 449.306;" xml:space="preserve">
<g>
	<g>
		<g>
			<path d="M412.212,219.429c5.861,0.007,10.692-4.595,10.971-10.449v-83.592c-0.279-5.854-5.11-10.456-10.971-10.449H360.49V104.49
				h41.796c5.771,0,10.449-4.678,10.449-10.449V10.449C412.735,4.678,408.057,0,402.286,0H36.571
				c-5.771,0-10.449,4.678-10.449,10.449v428.408c0,5.771,4.678,10.449,10.449,10.449h375.641
				c5.861,0.007,10.692-4.595,10.971-10.449v-83.592c-0.279-5.854-5.11-10.456-10.971-10.449H360.49v-10.449h51.722
				c5.861,0.007,10.692-4.595,10.971-10.449v-83.592c-0.279-5.854-5.11-10.456-10.971-10.449H360.49v-10.449H412.212z
				 M402.286,135.837v62.694H360.49v-62.694H402.286z M99.265,428.408H47.02V20.898h52.245V428.408z M402.286,365.714v62.694H360.49
				v-62.694H402.286z M402.286,250.775v62.694H360.49v-62.694H402.286z M350.041,83.592c-5.771,0-10.449,4.678-10.449,10.449
				v334.367H120.163V20.898h271.673v62.694H350.041z"/>
			<path d="M243.461,224.653h-22.988c-41.796,0-74.188,36.571-74.188,78.367v14.106c0,5.747,2.612,12.016,8.359,12.016H309.29
				c5.747,0,9.404-6.269,9.404-12.016V303.02C318.694,261.224,285.257,224.653,243.461,224.653z M297.796,308.245H167.184v-5.225
				c0-30.302,22.988-57.469,53.29-57.469h22.988c30.302,0,54.335,27.167,54.335,57.469V308.245z"/>
			<path d="M231.967,220.996c30.297,0,54.857-24.56,54.857-54.857s-24.56-54.857-54.857-54.857s-54.857,24.56-54.857,54.857
				C177.394,196.317,201.789,220.713,231.967,220.996z M231.967,132.18c18.755,0,33.959,15.204,33.959,33.959
				s-15.204,33.959-33.959,33.959c-18.638-0.28-33.679-15.321-33.959-33.959C198.288,147.501,213.33,132.46,231.967,132.18z"/>
		</g>
	</g>
</g>
<g>
</g>
<g>
</g>
<g>
</g>
<g>
</g>
<g>
</g>
<g>
</g>
<g>
</g>
<g>
</g>
<g>
</g>
<g>
</g>
<g>
</g>
<g>
</g>
<g>
</g>
<g>
</g>
<g>
</g>
</svg>
