<?xml version="1.0" encoding="iso-8859-1"?>
<!-- Generator: Adobe Illustrator 19.0.0, SVG Export Plug-In . SVG Version: 6.00 Build 0)  -->
<svg version="1.1" id="Capa_1" xmlns="http://www.w3.org/2000/svg" xmlns:xlink="http://www.w3.org/1999/xlink" x="0px" y="0px"
	 viewBox="0 0 426.398 426.398" style="enable-background:new 0 0 426.398 426.398;" xml:space="preserve">
<g>
	<g>
		<g>
			<path d="M204.356,198.311L307.278,55.16c3.795-4.529,4.611-10.852,2.09-16.196c-2.505-5.514-8.052-9.006-14.106-8.882H15.752
				C9.697,29.958,4.15,33.451,1.646,38.965C-1.021,44.21-0.41,50.524,3.213,55.16l101.355,143.151
				c2.897,4.703,4.351,10.153,4.18,15.674v161.437c0.179,5.416,3.142,10.355,7.837,13.061c2.761,1.884,6.067,2.803,9.404,2.612
				c2.144,0.173,4.297-0.186,6.269-1.045l56.424-21.943c5.837-2.119,9.493-7.927,8.882-14.106V213.985
				C198.12,208.175,200.497,202.69,204.356,198.311z M187.115,185.773c-6.201,8.161-9.838,17.981-10.449,28.212v135.837
				l-47.02,18.286V213.985c0.465-9.915-2.486-19.689-8.359-27.69L25.678,50.981h259.657L187.115,185.773z"/>
			<path d="M327.654,197.789c-54.822-0.288-99.497,43.921-99.785,98.743c-0.288,54.822,43.921,99.497,98.743,99.785
				s99.497-43.921,99.785-98.743c0.002-0.347,0.002-0.695,0-1.042C426.397,241.998,382.188,197.789,327.654,197.789z
				 M327.654,374.899c-43.28,0.289-78.599-34.563-78.888-77.843c-0.289-43.28,34.563-78.6,77.843-78.888
				c43.28-0.289,78.599,34.563,78.888,77.843c0.001,0.174,0.002,0.347,0.002,0.521C405.5,339.61,370.731,374.612,327.654,374.899z"
				/>
			<path d="M357.956,286.083h-19.331v-18.808c0-5.771-4.678-10.449-10.449-10.449s-10.449,4.678-10.449,10.449v18.808h-20.376
				c-5.771,0-10.449,4.678-10.449,10.449c0,5.771,4.678,10.449,10.449,10.449h20.376v20.375c0,5.771,4.678,10.449,10.449,10.449
				s10.449-4.678,10.449-10.449v-20.375h19.331c5.771,0,10.449-4.678,10.449-10.449
				C368.405,290.761,363.727,286.083,357.956,286.083z"/>
		</g>
	</g>
</g>
<g>
</g>
<g>
</g>
<g>
</g>
<g>
</g>
<g>
</g>
<g>
</g>
<g>
</g>
<g>
</g>
<g>
</g>
<g>
</g>
<g>
</g>
<g>
</g>
<g>
</g>
<g>
</g>
<g>
</g>
</svg>
